<svg width="661" height="626" fill="none" xmlns="http://www.w3.org/2000/svg"><path d="M327.275 234.399c.647-.087.714-3.23.343-3.267-1.322-.113-1.824 3.48-.343 3.267zm-140.371 45.56c1.084-.375 8.078 1.015 8.078-1.089 0-1.352-7.192-3.13-8.078-2.504.07.9.468 1.75 1.124 2.404 0 .664-3.027-.075-3.292.626.211.345.556.598.962.703a1.67 1.67 0 001.206-.14z" stroke="gray" stroke-miterlimit="10"/><path d="M250.347 321.376c-2.935.15-5.764-3.418-8.976-3.844-2.856-.376-3.028-.664-5.539.313 2.802-1.089-4.522-4.294-4.561-4.307-1.23-.313-2.486 2.842-3.596 2.391.225.088 1.322-2.504.198-3.48-1.123-.977-3.12 1.377-3.225 1.314.185.101 3.133-6.986-.463-8.839-3.464-2.153-6.306-1.753-9.452-3.242-2.935-1.403-3.2-4.846-7.324-4.595 1.679-.1-3.252-4.169-1.891-3.656-2.194-.826-6.438.926-9.254.325-1.123-.225-1.851-2.954-3.477-2.954-2.485 0-1.811 4.219-2.207 5.008-1.151 2.391-1.613-6.26-.45-5.559-.833-.501-6.61 3.305-7.258 3.756-1.322.926-1.824 2.729-3.172 3.105 2.273-.639-7.271-1.64-5.288-.927-6.042-2.178-3.279-2.917-4.918-7.962-.476-1.428 1.097-2.104-.185-3.406-1.283-1.302-6.372-1.502-7.932-.551-1.111.576.145-3.956.634-4.432 1.97-1.89 2.644-6.26-.449-6.36-5.064-.125-2.565 4.119-5.711 5.596-9.466 4.458-9.889-8.15-9.585-13.446a2.198 2.198 0 000 0c.516-9.327 7.615-6.798 13.537-6.147-1.56-.176-.238-2.404 1.56-2.504 1.677.058 3.33.402 4.879 1.014 2.987.839 2.234 0 4.455 3.568.872 1.427 1.216 5.008 3.173 5.596.171 0-.106-13.045 1.017-14.61 1.415-1.979 4.799-4.432 5.87-5.735 2.446-2.967.093.376.397-3.067 0-.363-.979-5.271.687-5.271-.648 0 .569 4.607.503 4.645 1.665-1.089.581-2.692.661-3.931 0-.989 5.393-2.68 5.83-3.581.185-.376-2.578 0-2.578-.075 0-1.327 4.336-1.102 4.97-1.515a11.868 11.868 0 011.838-4.783c1.957-1.915 6.835-1.49 8.342-4.419-.185.363.648 1.815 1.692 1.527-3.847 1.064-5.685 3.005-1.071 2.354 2.353-.338 5.923-2.504 7.681-3.756.106-.075-.806-1.152-.674-1.903-.08.476-2.909 2.592-3.57 2.504-4.494-.776-2.353-3.631-4.098-4.733a3.07 3.07 0 01-1.494.263c-.476-1.527 5.434-2.679-.251-3.38-3.966-.488-5.883 4.92-8.58 4.92 1.322 0 7.285-6.861 10.1-7.512 1.124-.35 16.988-1.44 15.666-4.757-.363-.2-.739-.379-1.124-.539-1.097-.964 2.869-1.915-1.533-2.404a4.882 4.882 0 01-.119-1.389c-.423-.276-4.865 1.465-4.865 1.452-.344-1.527 4.111-1.703 4.614-2.504 0 .063-9.532-4.319-8.673-5.396 1.759-2.153 1.745.25.609-3.092-.318-.914-4.561-6.548-4.257-6.811-2.063 1.765-.899 5.784-4.495 5.796-3.966 0-3.583-4.306-3.583-6.773 0-1.089-9.849-3.869-10.576-3.844-5.565.138-3.278.476-3.622 4.658-.066.714-.886 3.681-.806 4.106.661 3.243 3.49 4.282 1.758 8.439-.529 1.252-3.689 1.615-3.966 2.354-.304.989 1.229 1.99.991 3.167-.092.476.516 4.946.199 4.808-2.102-.939-1.177.914-3.53-1.077-2.644-2.241-.807-5.484-2.353-7.186-.608-.689-8.289-3.443-9.995-4.182a11.173 11.173 0 00-7.403-1.102c.674-.1-.634-3.756-.925-4.169-1.666-2.679-3.464.301-2.459-5.008.251-1.327 6.517-7.7 6.61-7.512 0-.263-5.129-2.078-5.09-2.166.714-1.615 5.063 2.88 6.253-.513-.542 1.565 6.888-1.528 5.037-2.792-.78-.526-5.143 0-4.878-1.941-.172 1.252 9.346 1.753 5.565-1.44-.132-.112 3.464 0 4.191 0 .503 0-1.322-1.652-1.203-1.815.542-.513 2.446 2.504 4.945-.125 1.93-2.041-1.005-2.254-1.124-4.232 0-.225 2.974-.989 1.983-2.404-.754-1.076-4.707-2.366-6.015-1.965-.912.275.33 4.482-2.142 5.846a2.952 2.952 0 01-.74-1.089c-1.045.063.938 3.656-.397 3.068-1.335-.589-1.454-3.143-1.666-3.318-.528-.438-1.229-2.053-2.115-2.805-.886-.751-1.732 2.792-2.075 2.855-1.322.225.172-3.067.264-3.218.608-1.076-3.212-.726-3.146-.663-1.217-1.002.833-1.553 1.044-1.866-.264.401-2.935-4.119-2.935-4.094-1.758-3.756-.568 0-1.018-4.269.212 1.991 8.17-3.318 5.407-4.182-2.763-.864-6.821-1.152-7.443.964-.343 1.252-.145 6.01-.661 7.925-.171.614-2.34 1.603-1.586 4.044.304.952 6.094 2.191 3.371 4.282a.998.998 0 01.36-.686c.21-.176.484-.267.764-.253.079.163-2.961 5.434-2.644 5.209a39.96 39.96 0 01-3.49-3.381c-.159-.275 3.873-.864 4.085-1.052 1.56-1.439-2.287-1.414-2.287-1.627 0-.413 2.062-.163 1.322-.701a4.663 4.663 0 00-1.66-.742 4.798 4.798 0 00-3.546.565c-.52.317-.966.731-1.312 1.216-.714.901 5.672 3.205-2.009 4.144-3.504.426-4.931-1.252-7.932-1.916-.886-.2-.846-1.076-2.446-1.252-.555 0-4.363 1.528-3.199 2.029.846.35 3.966-1.678 4.481-1.165-2.062-2.141-2.445 6.035-3.781 5.371-.594-.3-.224-2.266-2.035-2.829-2.486-.789-8.117 1.64-9.968-.288-.899-.927 2.366-1.152 2.115-1.703-.912-2.003-6.094-2.141-7.932-2.566-1.838-.426-3.239-1.415-4.918-1.59-2.023-.201-2.789 1.164-4.667 1.164-.277 0 .384-2.379-.489-2.504a9.92 9.92 0 01-2.273 2.504c-1.799-.125-1.56-4.307-3.702-3.994 1.454-.213-3.054 3.03-2.75 2.867a61.13 61.13 0 01-5.936 3.143c-1.123-.063 6.333-4.395 6.32-4.232.079-.851-6.452 1.765-7.179 2.141-.727.375 0-1.089-1.322-.664-3.12 1.064-.899 1.978-1.653 2.755.305-.301-19.287-4.37-20.583-4.47-1.917-.15-13.828-1.427-14.542-2.203-1.322-1.353-4.72.087-6.28 1.702-1.255 1.252-10.575 3.243-10.985 5.158-.952 4.019 8.95 4.771 9.703 6.962 0 .175-11.144-.401-12.374 2.378.423-.951 3.12 3.043 3.398 3.143 1.322.451 8.09-.927 8.117-.889 1.904 1.79-2.234 4.219-3.252 5.121-1.23 1.076-1.322-.664-2.803 1.164a23.779 23.779 0 01-2.79 2.141c.318-.276 2.248 3.819 2.314 3.869 1.177.976 4.786.964 4.363.563 1.137 1.077-.106 3.33.952 3.856.714.363 3.186.075 4.547.601-1.216-.463 3.742-2.041 3.45-1.252-.673 1.928-8.804 11.268-9.994 10.016 1.428 1.49 16.09-7.887 16.09-10.104a4.03 4.03 0 00-1.323-.701c-.33-.788 7.932-7.299 7.641-4.77 0-.263-4.93 3.568-3.794 4.558.344.287 5.804-1.503 6.61-1.803.807-.301-1.983-2.642 0-2.98.674-.113 3.279 1.34 3.385 1.252a.958.958 0 00-.747.095.882.882 0 00-.276.254.834.834 0 00-.14.339c.25.752 11.66.276 12.373.877-.344-.288 7.324 5.984 7.245 4.232a2.804 2.804 0 01-.238-2.004c3.648 2.504-1.706 3.206-1.692 3.055 0 .176 2.776 3.882 2.644 3.919.515-.263-.714-3.355.118-3.067.188.392.265.823.225 1.252.926 1.126 1.084-2.504.965-2.254.198-.488.291 4.783-.29 4.708-.847-.113 4.851-.464 3.172.313.529-.251-2.075-1.716-.634-1.828 2.22-.176.476 1.778-1.005 1.903-.01 1.028.078 2.054.264 3.067.45.313 2.486-1.502 3.517-1.327 1.031.175.846 3.756 1.414 4.507.41.539 3.266 3.255 3.636 3.756a30.11 30.11 0 006.002 4.583c-.198-.151 7.509 6.009 3.265 6.009-.159 0-4.6-11.33-9.531-8.038 1.03-.688 6.609 6.911 6.993 7.888 2.062 5.609-1.322 12.132.978 18.254 1.573 4.194 5.724 6.848 8.527 9.728a36.307 36.307 0 014.455 6.385c1.97 3.155 2.406 3.957 2.01 5.759 0 .088 8.883 8.89 8.54 9.128.846-.576-8.805-17.078-8.527-17.115 3.49-.338 3.794 4.832 4.442 5.784 1.784 2.617 5.037 5.008 6.993 7.437 3.345 4.069 3.794 8.338 6.782 11.268 1.983 1.94 6.61 3.631 9.254 4.419 3.49 1.052 7.178.063 9.994 2.667 1.322 1.165 3.319 1.252 4.217 2.066 2.473 2.153 3.491 1.077 5.804 3.33 1.56 1.515 2.01 2.905 2.908 3.756 1.481 1.377 3.966 3.994 6.201 4.144 2.234.151 1.52-2.328 2.644-2.078 4.97 1.114 4.071 7.424 2.062 11.268-2.168 4.194-4.944 4.92-2.499 9.152.172.301-2.419 4.282-2.168 5.522.476 2.353 6.029 9.327 7.324 11.768 2.486 4.633 5.658 5.108 9.175 8.89 3.212 3.455 2.194 6.26 1.639 10.967-.806 6.899-1.018 13.684-2.565 20.37-.621 2.667-5.962 16.551-3.966 19.218.913 1.252 1.322-3.493 2.169-3.756.846-.263-.542 10.354-1.428 9.766-.463-.313.515-3.443-.701-2.93 1.111-.463-2.274 4.42-2.287 4.47.132-1.377 1.732 1.678 1.798 2.166.106.851 1.957-.564 1.864.676.132-1.853-5.552 2.128-2.869 1.74a5.942 5.942 0 001.217-.889c.396-.075-2.803 3.168-.661 3.493.423.063.647-2.078 1.242-1.515 1.256 1.19-2.393 3.756-1.533 4.733.172.2 1.956-.764 2.3-.088.106.213-1.203 1.177-.992 1.252.714.251 2.34-.663 2.644.313.305.977-3.172.075-1.983 1.678.45.601 3.279-1.941 3.808-.275-.146-.476-3.173 1.502-3.279 1.627a34.717 34.717 0 013.728-.814c.265.551-4.138 2.166-4.257 1.691.133.538 2.644 2.028 3.068 1.652.687-.663-.913-.338-.344-1.039.396-.501 3.781-2.279 3.966-2.754-.299.17-.543.413-.709.704a1.766 1.766 0 00-.23.948 6.304 6.304 0 001.534.075c-.423-.45-1.018 2.104-.86 2.029a2.065 2.065 0 01-.505-.653 1.932 1.932 0 01-.195-.787c-.754-.313-.37 1.502-.476 1.427a.975.975 0 00-.477-.559 1.068 1.068 0 00-.753-.092c.622-.826-.766 2.504-.766 1.365 0-.639 2.141 1.865 2.088 1.815a3.64 3.64 0 00.595-1.352 39.964 39.964 0 003.556 2.329c.661.187-.475-1.465-.092-1.415a23.25 23.25 0 005.129-1.002c-2.379-.826-5.288-4.832-5.737-5.008-.357-.087-1.706.188-1.507-.676.198-.864 1.467.301 1.798 0 .33-.3-1.494-2.967-1.111-3.756.595-1.252 1.639-1.602 2.314-2.767.899-1.552 3.12-2.742 3.252-4.469.119-1.365-2.076-1.39-1.97-1.778.41-1.503 1.428-5.183 3.067-7.137.621-.751 2.737-2.716 2.723-2.729-.515-.413-4.561-.075-2.432-3.117-.674.951 4.825-.827 4.548-.676.753-.414-.106-2.817.277-3.206 1.877-1.89 8.791.852 9.571-4.194.172-1.114-3.067-5.008-3.133-4.933 1.098-1.089 6.214 1.252 9.03-1.577.7-.701 4.204-6.573 4.19-6.398a11.806 11.806 0 01-1.322 2.442c0-1.165 4.112-4.382 4.64-5.735.767-1.928-.158-4.444.899-6.26 2.129-3.53 6.901-2.854 9.545-4.432 3.398-2.041 4.376-5.008 5.42-8.764.648-2.328 0-8.263 1.322-10.128-.185.375 13.247-13.622 4.852-13.171z" stroke="gray" stroke-miterlimit="10"/><path d="M185.08 276.154c1.943-2.504-20.028-6.987-17.278-3.193-1.322-1.815 8.764.614 9.254.864 1.639.889 5.631 5.371 8.024 2.329zm-7.006 3.417c.304.539 3.146 1.252 3.437.626.291-.626-3.807-1.302-3.437-.626zm19.235.151c.661 1.089 2.643.438 2.762 0 .305-.776-3.437-1.077-2.762 0zm10.695 134.039c.898.463 2.763-1.866 1.943-2.016-.82-.15-2.803 1.578-1.943 2.016zm2.194.163c.595.3 3.054-.764 2.763-1.328-.542-1.164-3.318 1.015-2.763 1.328zm-54.123-101.8c-.753 1.164.741 2.303 1.045 1.79.304-.513-.291-2.955-1.045-1.79zm67.171-148.488c.159-2.804-4.375-1.44-5.05-1.252-.674.188 4.839 4.683 5.05 1.252z" stroke="gray" stroke-miterlimit="10"/><path d="M274.064 161.721c-.542.313-7.218-.676-7.258-.564.172-.425 2.42-2.867 2.129-2.967 1.467.526 5.684 5.271 5.883.876.158-2.566-3.808-2.566-4.389-4.695-.172-.588 5.155 1.628 4.085-1.502-.595-1.778-5.83 1.252-5.619-.651-.079.664 1.811-2.329 1.481-1.991 1.665-1.74 9.254 4.257 4.349-1.765-.198-.238 4.402-.163 4.627-1.052.225-.889-4.574-.763-3.49-2.504 1.322-2.128 4.799.964 2.644-3.393.079.151-5.539-1.665-4.68-2.504.859-.838 7.456 0 7.205-.964-.634-2.278-3.9.126-4.164-1.828-.146-1.014 1.983 0 2.3-.525 1.19-1.778-5.156-.338-4.931-.176-1.719-1.252 7.033-8.976 7.284-8.651-1.599-2.028-3.067 1.352-4.204.288-1.137-1.064 6.333-1.953 6.531-2.078.635-.376-3.966-1.252-4.191-.964.807-1.252 11.581-1.14 11.581-3.957 0-3.756-10.219-.15-11.356.201-.899.263-2.195-.839-2.816-.614-2.049.739-3.966 3.894-6.134 4.194 2.155-.3 4.601-5.233 1.084-5.821-.555-.088-6.504 4.069-6.874 2.817-.291-.99 3.582-1.453 3.49-2.279-.185-1.753-12.639.989-12.665.726-.185-2.391 17.345-1.427 19.103-3.681.978-1.252-22.289-4.807-24.391-4.294-.529.125-3.688 1.189-4.045 1.252a16.945 16.945 0 00-2.195-.113c-3.966.426-7.813.175-11.766.889-.489.088 1.719 1.49 1.692 1.615-.026.125-3.463.338-2.987.927-.106-.126 4.865 3.342 4.521 3.418-2.789.563-7.932-5.472-10.708-3.519-.688.476 2.049 2.066 2.049 2.429 0 1.453-5.605-1.652-5.447-1.652-.41 0-.251 3.167-1.044 3.643 2.419-1.427-2.988-3.443-3.834-3.518a4.72 4.72 0 00-2.627.556 4.38 4.38 0 00-1.828 1.873c-1.256.413-3.107-1.027-4.733-.401-1.163.451 1.031 2.304-.582 3.143-.436.225-11.739.488-10.232 3.756 1.137 2.504 7.245-.113 1.825 4.081-1.481 1.14-5.764.676-7.628 1.878-8.659 5.597 8.011 1.903 7.839 5.008 0 .351-8.844.363-8.672 1.14.224 1.139 6.187 3.756 7.773 3.893 3.213.288 6.293-1.99 10.576 0 3.755 1.715 7.549 5.234 8.672 9.202 1.322 4.645-1.797 5.234 3.345 5.234a28.224 28.224 0 004.389 4.469c-.185.138-5.737-2.078-5.737-.738 0 3.13 7.747.839 5.684 6.423-.317.826-2.763-.351-3.49 1.339a8.01 8.01 0 00-.872 3.581c-.119 2.253 3.45 10.016 6.081 13.471 2.115 2.742 3.371 3.168 6.359 4.445 4.68 1.991 3.596 2.241 6.24-1.465 1.017-1.452-.556-2.854-.146-3.981.212-.589 2.234-.576 2.538-1.841.384-1.627.146-4.319.371-5.008a3.626 3.626 0 011.665.213c.225-.125 3.133-3.831 3.477-3.831.218.183.36.433.401.706.041.273-.021.551-.176.784.568 1.69 7.244-3.944 7.377-4.044 2.551-1.753 2.181-1.865 4.455-2.817 5.037-2.041 10.708-3.831 14.806-6.122zm-170.446-19.369c1.455-.751 1.455 0 2.552-1.089a5.349 5.349 0 001.19 1.402c1.732 0 2.432-3.53 3.516-3.756 1.084-.225.331 3.13 2.829.839.952-.864.741-1.665 1.666-2.629.251-.263-5.288-.088-6.028.15-2.102.701-5.804 5.133-5.725 5.083zm11.079-1.402c-2.499.188 1.322 1.728 1.242 1.352a5.771 5.771 0 00-2.895.801c-.449.601 2.499.376 2.182.489a5.704 5.704 0 00-3.001 1.014c1.599 2.216 4.323.112 5.592-.639-.661.388 3.886 1.453 4.19 1.014-.436.614-4.706 1.177-4.64 1.828.238 2.104 8.527-.688 9.757-1.252 4.111-1.702 5.288-.325 3.384-3.756.172.276-4.442-2.742-5.169-2.379-2.142 1.052 1.322 3.156.806 3.894-1.229 1.916-5.38-2.153-6.359-2.391-2.525-.501-3-.125-5.089.025zm27.987 16.702c3.027 2.153 6.61-5.897 4.653-5.997a1.336 1.336 0 00-.499.784c-.066.308-.015.629.142.906.212-.426-2.485-1.252-2.432-1.252-.582-.864 3.847-1.653.978-3.493-2.128-1.378-1.877 1.177-1.837 1.164.37-.175-6.373-.739-4.231 1.089.723.19 1.462.324 2.208.401 2.538 2.091-4.416.964-3.702.839-2.022.4 4.098 5.12 4.72 5.559zm-42.424-1.39c.85.872 1.649 1.787 2.393 2.742 1.825 0 3.742-2.504 4.641-3.155 2.353-1.665 5.697-3.293 8.077-5.158.886-.689-10.854-3.882-12.387-3.431-4.918 1.465-.635.463-2.234 3.03-.503.789-3.147 4.92-2.816 5.309.721.364 1.512.59 2.326.663v0zm8.977-12.746c1.322.151 2.644-1.089 2.644-1.79 0-.701-3.318 1.715-2.644 1.79zm79.386 15.488c.192 0 .382-.037.559-.108.176-.071.336-.175.47-.306a1.34 1.34 0 00.305-.456c.069-.17.101-.351.094-.533.317 1.027-5.645-1.928-6.187-2.103-1.322-.426-.49-1.577-2.644-2.041-1.468-.313-3.715 1.753-3.649 1.766-1.983-.664-1.15.137-3.398.137-1.652 0 1.137-8.576-6.041-4.469-4.336 2.504-.741 3.756-.542 6.41 0 .438-3.239-.914-3.107-2.905.119-1.803 2.499-3.418 2.499-4.557 0-2.103-7.813 2.504-8.197 4.182-.515 2.203 2.843 6.61 4.217 4.883-.356.438-3.661-.414-3.569.413.476 4.519 17.675 1.702 18.045 2.616a1.923 1.923 0 01-.574-.54 1.819 1.819 0 01-.298-.712c.238-.751 6.055 3.418 6.094 3.756a4.687 4.687 0 00-1.652 1.478c1.11.876 2.34-.889 4.19.926 2.089 2.054 2.05 1.628 2.552 4.745.106.651 6.319-1.252 5.195 1.465-1.123 2.717-2.776-.701-3.595-.451-.82.251-2.948.326-4.085.651.085.697.319 1.37.687 1.979-1.758.813-4.614.087-5.962 1.252-4.958 4.019 5.288 1.577 6.702 2.003 1.415.426 9.981 10.341 12.202 7.512.556-.726-3.767-5.158-4.574-5.008 3.279-.902 8.091 4.232 6.372-.964-.766-2.316-6.61-4.107-4.045-6.999 1.058-1.252 5.473 3.919 6.213 3.894 0 0 4.337-4.307 4.337-4.282 0-2.88-11.978-4.432-11.594-7.224a6.669 6.669 0 012.313-.538 3.905 3.905 0 00-1.943-1.015c-.198-1.715 1.917-1.627-1.124-1.627 2.208 0-3.054-2.266-3.252-2.341-.621-.188-3.014-.889-3.014-.889zm-102.865 47.45c-1.388.764 1.732 4.382 2.565 3.844.251-.175-.529-4.97-2.565-3.844zm49.668-61.385c.515-.626-1.124-1.94-1.573-.851-.45 1.089.991 1.49 1.573.851zm40.4 41.654c.529-.087 1.573-2.028.225-1.953-1.349.075-1.031 2.066-.225 1.953z" stroke="gray" stroke-miterlimit="10"/><path d="M183.309 170.172c4.085-.714-3.966-3.506-2.644-2.429.885.688-2.274 3.28 2.644 2.429zm-14.093 14.836c1.203.776 2.987-1.315 2.842-1.941-.145-.626-4.257.977-2.842 1.941zm-14.344-39.776c.688 2.003 17.781 2.829 19.764 1.465 7.932-5.422-16.749-2.705-16.419-4.47.38-.472.824-.893 1.322-1.252.608-.764-13.418-3.443-12.347-1.866 2.948 4.257 5.711.238 7.68 6.123zm-17.199 17.403c.397-.489 2.314 1.001 2.393-.075 0-.764-5.698-4.608-6.2-5.835a27.468 27.468 0 01-.384-5.008c.675-.576.609-1.252-.224-1.815a3.263 3.263 0 00-1.769-.077 3.126 3.126 0 00-1.523.853 9.951 9.951 0 012.089 1.866c0-.363-3.742-1.641-4.112-.939-.529 1.001 1.706 4.632.992 5.008-.132 0-5.05-5.234-5.288-4.044.522.421.969.92 1.322 1.477 0 .188-2.724.075-2.578.438-1.97-4.933-3.596.977-5.381-.613-.185-.176 3.067-2.504-.766-2.504-1.481 0-5.288 2.015-5.778 3.192-2.221 5.008 2.763 1.327 4.852 2.855.106.075-4.415 1.189-4.415 1.778 0 2.629 10.695-.263 10.695 1.953 0 .538-9.638 0-9.254 1.477.991 4.082 13.22 3.268 15.705 2.942a19.809 19.809 0 013.966-.513c.833 0 7.681 2.229 6.861-.413-.661-2.066-2.234.626-2.776-.776a5.973 5.973 0 011.573-1.227v0zm64.342 53.46c.146.614 4.495 2.504 4.641 1.628.145-.877-4.773-2.166-4.641-1.628zm-43.374-80.04c-1.323-.701-3.041.776-1.64 1.327 1.243.463 3.041-.626 1.64-1.327zm-11.621-1.002c8.804 0-1.587-4.645-2.168-3.756-.582.889 1.137 3.756 2.168 3.756zm.898-7.7c.08 0 6.941 3.043 6.61 2.016.186.526-3.159 1.252-2.987 1.477 2.194 2.291 5.645 3.756 8.751 2.955.212 0 6.465-5.334 6.28-4.432-.251 1.252-4.614-4.182-4.852-4.357-.238-.175-9.505-4.783-10.404-4.132.069.24.211.454.409.617.197.163.442.266.701.297 0 .489-2.273.1-2.485.501.423.317.833.643 1.23.977-.45.826-3.067-.401-2.975 1.252a5.613 5.613 0 002.049 1.465c.053.876-4.957 0-2.327 1.364zm26.044 22.611c-1.89 4.232 7.628 3.256 7.628 2.329 0-1.415-7.086-3.53-7.628-2.329zm-20.874-14.523c-.159-.475-5.83.238-4.944.927 1.494 1.164 5.089-.463 4.944-.927zm-34.505-.088c.384-.926-2.472-.776-2.234-.463.516.701 1.864 1.402 2.234.463zm32.852 8.476c-1.203-.939-4.759 1.315-4.27 1.703 1.943 1.565 8.672 1.728 4.27-1.703zm-17.279-6.222c.595-.776-2.406-3.255-2.551-2.091-.145 1.165 1.917 2.918 2.551 2.091zm6.584 1.365c-1.785-.714.754 2.504.476 2.504a6.782 6.782 0 00-2.842-1.252c-.635.488.925 1.966.409 2.203-.806.364-2.776-3.217-3.886-3.28-2.38-.125.846 3.205.952 3.268 1.996 1.139 3.569.263 5.565.776-.277-.075 2.208 5.997 4.548.626 1.705-3.969-3.186-4.069-5.222-4.845zm-15.943-4.006c1.322-.201-5.288-1.691-5.288.701-.027 4.056 5.301-.701 5.288-.701zm-3.662-1.478c.608.263 4.865.213 4.865-.613 0-3.018-7.059.325-6.888.463a7.802 7.802 0 002.023.15v0zm22.739-6.059c.528-.927-3.147-1.666-2.235-.852.516.463 1.719 1.791 2.235.852zm-10.246 3.655c1.203-.375 1.956 0 2.247 1.09-.145.338-2.776.237-2.644.463.132.225 14.397 5.546 7.113-1.252a7.724 7.724 0 00-3.451-1.766c-6.438-.751-2.736 1.102-3.265 1.465zm41.008 49.654c.146-.813-7.31-5.646-7.707-5.596-.714.088-4.191 4.507-3.741 5.909.449 1.403 11.515-.688 11.448-.313z" stroke="gray" stroke-miterlimit="10"/><path d="M156.974 119.666c2.644-1.803.463.751.49.789a7.45 7.45 0 011.586.238c-2.988 3.318 5.579 2.779 5.539 2.153.384 5.158 10.92-1.728 12.189-.876 2.432 1.64-6.398 3.255-6.187 3.53 0 0 2.842 2.279 2.485 2.292-1.679.125-10.457-5.785-8.976-.526.344 1.252 7.245 3.756 7.245 4.908 0 0-8.699-2.504-8.911 1.089-.132 2.228 4.799-.401 4.852-.263-.767-1.615.767 5.008.767 3.756 0 1.502-6.742-3.906-6.465-.927.616.537 1.28 1.023 1.983 1.453 0 .513-5.79.964-4.428 2.266 1.559 1.515 19.155 1.978 20.041 0 .886-1.978-6.61-1.477-6.94-2.003 1.044 1.552 6.61-2.817 7.046-3.018 2.802-1.464 3.966.689 5.446-3.455.437-1.252-4.851-1.252-4.798-1.252 3.08-2.066 7.138-1.252 9.941-2.504 1.705-.801 11.805-5.747 11.898-6.473.093-.726-4.733-.188-5.01-.3 2.326.964 10.576-4.232 10.708-4.207-.661-.2-10.232-3.28-10.391-.952.38-.547.916-.982 1.547-1.252-1.878.701-11.277.226-12.546.288-4.31.213-8.474-.538-12.268.451-.767.2-18.403 5.684-18.733 5.008a1.743 1.743 0 001.89-.213v0zm59.834 93.174a8.919 8.919 0 00-3.596 3.931c-.185.376-3.476 3.506-2.141 4.257 3.027 1.678 5.817-2.504 6.134 1.252-.106-1.252 4.389.463 4.587.1-.079.163-1.322-3.255-.727-3.005.806.351-5.962-4.081-5.87-3.343a6.843 6.843 0 011.613-3.192v0zm-189.429-5.008c.898-.388 1.322-.864.898-1.327-.422-.464-1.586 1.652-.898 1.327zm6.359-3.481c-1.045-.388-2.102 1.19-2.248 1.177-.45-.075 3.252-.788 2.248-1.177zm17.662-8.626c-1.72 2.053-3.134 5.985.528 2.504.542-.526 1.336-4.72-.528-2.504zm-22.527-5.083c-.7-.401-1.203-.213-1.494.538.278.322.646.563 1.063.693.417.131.864.147 1.29.046 2.538-.876-.872-1.415-.86-1.277zM317.28 238.08c-.119-.876-1.837.263-1.467.513.753.539 1.6.364 1.467-.513zm37.994 8.802c0-.576-4.838 0-4.732 0-.622-.05 4.878 1.502 4.732 0zm12.652.651a15.19 15.19 0 011.243-1.49c-1.33.257-2.619.678-3.834 1.252-.661 1.202 2.736 1.064 2.591.238zm-82.083-68.197c5.288-.275.317-7.925-2.221-6.522-.582.313-4.31 2.278-4.984 2.09a1.264 1.264 0 00-.453-.607 1.373 1.373 0 00-.737-.256c-3.318 3.756.119-1.077-4.455-1.077-.952 0 .489 1.252.238 1.252-.926-.1-2.327-.363-2.552 1.252-.105.713 3.808.551 3.662.413-.145-.138-.383 1.327-.251 1.252-.106.063-3.133.125-2.869.638.093.176 2.763.263 3.226.777.846.926-.912 2.078-1.097 1.89 3.199 3.356 9.069-.914 12.493-1.102zm9.901 32.74c4.442 0 5.659-3.03 5.222-6.26-.145-1.102 2.235-1.252-.436-2.642a10.923 10.923 0 00-3.49.701c-.079 2.254.172.263-2.366 1.578-.08.075-.027 6.623 1.07 6.623zm13.604-21.034c.424-.438.926-2.128.278-1.94-.648.188-.449 2.128-.278 1.94zm-8.514 4.07c-.33-.339-1.626 1.565-1.123 1.552.502-.012 1.441-1.214 1.123-1.552z" stroke="gray" stroke-miterlimit="10"/><path d="M300.411 197.44c1.626-1.352.093 5.196.093 4.357 0-1.177 2.141.576 1.903.614.469-.345.808-.823.965-1.365.754.113-.489 2.804-.476 2.98.146 1.051 2.856-.664 3.015-.388 1.784 2.942-1.428 4.169-1.322 6.109a2.411 2.411 0 00-1.228.648 2.2 2.2 0 00-.623 1.193c1.366.313 2.76.506 4.164.576.093.475-5.883 1.64-4.415 3.493 0 0 10.734-2.229 11.369-2.842.634-.614-1.097-.226-1.045-.664.291-2.041 1.983-1.089 1.045-3.318a6.12 6.12 0 01-2.089-1.552c-1.203-1.928-2.379-6.072-5.288-5.872 0 0 1.877-2.955 1.679-3.418-.82-1.978-2.366.276-3.53-1.052-.396-.438 2.393-2.203 1.573-2.929-.568-.601-5.671 3.33-5.79 3.43zm30.578 6.398c-.317-.075 4.231-1.165 2.063-2.567-1.851-1.202-2.248 2.529-2.063 2.567zm12.097-7.274c-.952 0-1.322 1.953-1.15 2.279.172.325 2.088-2.354 1.15-2.279zm5.288-.576a4.842 4.842 0 001.745-1.19c1.216-1.277-3.623 1.29-1.745 1.19zm1.414-2.279c.198-.388-1.441-.212-1.071.138a.724.724 0 001.071-.138v0zm-7.324-67.408c1.415 1.152 4.178-.175 5.936.864-.066 0-3.53 1.252-3.517 1.252.86 2.104 13.22 1.027 12.387-2.216-.105-.388-8.064-1.452-7.747-1.552a1.4 1.4 0 00-.451.804c-.052.308.004.624.161.899-.661.463-3.861-2.029-4.575-1.941a5.07 5.07 0 00-1.084 1.402l-1.322-.939c-1.414-.012 0 1.265.212 1.427zm-10.365 3.156c-2.538-.564 1.322 3.756 1.93 4.044 1.177.638 2.116-2.066 2.962-2.379.846-.313-.357 1.477.462 1.427a6.737 6.737 0 011.798-.726c.727 1.077-5.288 3.155-4.481 3.355 1.52.363 3.159-.576 4.732-.212a25.865 25.865 0 00-4.64 1.402c-.145 1.402 2.644 1.339 3.332 1.59a1.086 1.086 0 01-.322.43 1.161 1.161 0 01-.498.233c-.383.489 2.102.727 2.499.501a36.447 36.447 0 002.644-3.756c.304-.363 2.71-5.822 4.204-3.581-.397-.6.608 4.758.066 4.658.634.125 6.345 1.039 6.121-1.477.119 1.252-5.91-4.17-5.804-4.094-1.877-1.453-4.68-1.691-6.015-2.004.78.176-1.243-2.378-2.208-2.679-1.401-.438.317 4.72.41 4.307 1.322-5.309-3.9-1.139-3.86-1.152a9.6 9.6 0 00-1.56-1.252 5.983 5.983 0 011.414-.551c-.436.163-9.65.501-3.186 1.916zm-1.533 3.142a6.62 6.62 0 001.19.851c-.555 0-1.163-2.716-2.247-2.403a1.29 1.29 0 00.205.974c.196.288.501.495.852.578v0zm300.359 49.229a3.012 3.012 0 00-2.089.664c.33.388 5.182 1.464 5.182.425a4.877 4.877 0 00-3.093-1.089zm-82.295 48.79c-.251-1.577-3.966 5.184-2.102 4.207-.33.175 1.56-1.001 1.507-.739a14.445 14.445 0 00-.991-1.252c0 .376 10.761.288 10.219-4.144.291 2.404-9.003-1.577-7.932-2.266.106-.087-.701 3.944-.701 4.194zm-19.909 21.81c.529 1.014 1.031-1.415 1.322-.2 0 .175-.714 3.831.529 3.568 1.017-.213 2.855-3.693 1.322-4.319-.45-.138-4.522-1.615-3.173.951zm5.936-.413c.37-1.54 2.644.288 2.644-2.129 0-1.252-2.644 0-2.777.226-.436.763-.238 3.405.133 1.903z" stroke="gray" stroke-miterlimit="10"/><path d="M538.345 246.781s-8.223.351-7.588 3.08c.079.351 6.927-.613 7.416-.713-1.534.338 1.467 1.026 1.824 1.001 1.164-.087.278-1.602.489-1.728 1.322-.763 5.288.677 6.61-1.064 1.058-1.364 3.464-10.754 1.6-11.769-2.34-1.252-3.503 5.86-4.6 7.312-.886 1.152-5.5 1.465-5.751 3.881zm-42.45 32.164c.349-.668.649-1.359.899-2.066-.198-.713-4.428-.175-3.569 1.365.092.188 2.525 3.318 2.67.701zm17.504-6.259c.819-.589 2.749-4.545 2.102-5.447-2.169-2.992-3.887 6.786-2.102 5.447zm-1.546 10.816c-1.151 3.606 11.144 8.426 8.606 11.193 4.085-4.444-4.693-6.26-5.592-8.288-.899-2.028 3.159-4.933 0-6.673-2.115-1.189-2.962 3.618-3.014 3.768zm-2.143 11.294c-.89.84-1.615 1.824-2.141 2.905-.212-.389 4.323-3.093 3.49-4.821a2.76 2.76 0 00-.904.813 2.602 2.602 0 00-.445 1.103v0zm3.094-6.01c.145.726.502 2.229 1.599 1.866 1.098-.363-1.705-2.379-1.599-1.866zm7.033 6.223c-.397-.513-1.388.438-1.243.826.145.388 1.639-.363 1.243-.826zm1.653.876s-7.271 4.469-6.042 4.357c1.23-.113 1.732-1.741 2.988-.902 1.256.839.489 3.543 2.895 3.543-1.798 0 1.917-3.643 1.745-3.004a3.654 3.654 0 00-.154-2.225 3.876 3.876 0 00-1.432-1.769v0z" stroke="gray" stroke-miterlimit="10"/><path d="M515.501 291.428a1.674 1.674 0 00-.462 1.213c.018.446.216.868.554 1.178 3.134-.651-1.097 2.254 1.322 2.792 2.076.476 2.221-5.934-1.414-5.183zm50.381 29.785c0 2.053-5.566.776-5.645 1.402-.304 2.98 8.567.1 6.742-2.066-.608-.175-.978.038-1.097.664zm2.248-.2c1.493-.414-1.164-2.204-1.481-2.279.489.1.991 2.404 1.481 2.279zm-9.585 3.618c1.322.087-4.296-4.432-5.592-5.133-2.908-1.565-8.553-3.994-11.462-3.831-.846 0-2.022 2.504-3.053 2.328-2.076-.363-.886-2.504-2.367-3.042-1.322-.488-1.322-1.828-3.556-1.515-.383.063-2.551 1.678-1.785 1.84.423.088 4.812 2.404 4.839 1.691 0 .325-2.644.313-2.935.35-1.216.213 4.574 2.905 4.944 3.068 2.552 1.176 4.402.926 5.883 3.392 1.481 2.467-2.075 2.329-1.481 3.443 1.098 2.041 9.162.238 10.021.251 2.353 0 2.314-.075 5.288 1.314-.079 0 7.232 3.456 6.452 2.229-.357-.488-6.663-6.46-5.196-6.385zm-111.934-29.259c-1.084.125-1.11 6.097.146 6.573 3.503 1.352 2.723-6.899-.146-6.573zm-53.025 38.223c0 .063-2.34 3.869-2.736 4.257-1.058 1.002-3.834 1.615-4.667 2.504-2.3 2.504-.754 3.643-1.15 7.349-.291 2.617-3.543 13.184 3.966 9.741 4.296-1.978 3.41-13.609 5.023-17.428.212-.501 1.322 1.127 1.322-.989s-1.269-3.593-1.758-5.434zm7.324-43.269c.555.601 1.653-.1 1.719-.338.066-.238-2.354-.338-1.719.338zm178.668 39.087c.146.777 1.322 1.252 1.719.977.396-.275-1.877-1.778-1.719-.977zm-5.314-4.782c0 .2 1.15 1.402 1.414 1.252.265-.15-1.348-1.615-1.414-1.252zm5.605 3.118c.41-.276-2.314-1.828-2.353-1.327-.04.5 1.943 1.602 2.353 1.327zm-8.765-5.284c-.093.463 1.507 2.93 2.102 2.504 1.058-.701-2.036-2.967-2.102-2.504zm10.233 5.208c-.384.851 1.11 2.329 1.321 2.366.212.038-.978-3.029-1.321-2.366zm1.308 3.456c0 .188 1.044 1.127 1.534.776.489-.351-1.666-1.114-1.534-.776zm-53.461 2.479c.37.313 2.234-.075 2.168-.539-.066-.463-2.737.076-2.168.539z" stroke="gray" stroke-miterlimit="10"/><path d="M568.831 363.493s-.899-5.133-.437-4.933c-3.186-1.415-7.826-7.7-10.126-11.017-1.732-2.504-2.261-5.171-3.649-8.289-.714-1.615-2.195-.4-2.644-1.452-.74-1.54 0-4.758-1.6-6.172-1.216-1.077-1.864 7.699-1.877 7.737-1.692 4.557-.687 4.632-5.023 3.18-1.243-.426-4.984-2.241-5.288-3.756-.278-1.315 2.987-3.531 2.551-4.357.331.626-7.853-2.203-8.025-2.128-.211.501 0 .889.635 1.164-2.247-2.504-5.949 6.41-4.838 6.26.528-.063-3.345-.576-2.274 0-2.777-1.527-2.354-3.042-5.672-.789-2.155 1.478-1.388 3.456-2.644 4.77-.33.351-.555-1.79-1.071-1.464-1.784 1.139-.396 2.604-2.009 3.856-1.996 1.54-3.001 1.64-5.195 2.679-2.882 1.34-4.931 1.753-7.43 3.981a1.124 1.124 0 01-.185-1.089c0 .564-.714 2.329-.793 3.268-.08.939.951 4.57.674 5.121a1.948 1.948 0 01-1.005-.889c.203.402.366.821.489 1.252-.41-.301-.806-.614-1.203-.927-.476 1.127 3.12 7.124 3.464 8.464.172.688.132 7.174-.172 6.573 2.3 4.469 5.632 1.414 9.439.35 3.12-.864 5.129-1.49 8.144-2.566 2.326-.827 7.271-2.504 9.809-2.104 1.56.238 9.36 6.022 7.575 6.786.542-.225 3.754-4.006 3.966-3.831 1.005.889-1.626 3.293-1.758 3.844-.476 2.166 2.644-1.703 1.798-1.077 1.123-.852.595 2.642.489 2.366-.106-.275 3.688 4.62 4.045 4.895 2.142 1.753 7.469.126 7.416.101.08.388.08.788 0 1.176-.489-.575 1.772.714 2.314 1.252-1.097-.989 6.266-3.167 6.055-2.942 1.123-1.252 1.771-6.748 2.644-8.538.542-1.465 2.763-10.254 3.411-10.755z" stroke="gray" stroke-miterlimit="10"/><path d="M539.773 379.068c.41.388 1.785.275 2.009-.276.225-.551-2.406-.075-2.009.276zm16.908 10.805a14.123 14.123 0 01-2.882-.864c.502-.138.092 7.337 4.31 5.233 2.128-1.114 2.948-4.87-1.428-4.369zm36.21 13.046c.264.075 1.123-.151.634-.777s-1.269.601-.634.777zm16.908-19.657c-1.005 1.741-3.199-2.616-3.397-2.604a.877.877 0 000 .977c.171-.251-3.319-4.745-4.046-4.745-.079 0 2.512 4.857 2.737 5.458.78 2.154-1.785 2.066-1.692 3.243 0-.088 1.864 5.008 1.758 4.895 2.142 3.806 6.702-10.804 4.64-7.224zm-6.094 6.26c-2.102-1.553-14.74 9.14-10.92 11.569 3.821 2.428 12.691-10.217 10.92-11.569zm8.302-46.474c.41.163 1.758-.301 1.758-.964 0-.664-2.38.776-1.758.964zm-2.314 2.103c.635.626 1.904.576 1.943-.538.04-1.115-2.511-.013-1.943.538zM392.832 124.687a2.754 2.754 0 00-1.586.939c.7 1.452 7.165-1.465 7.191-1.878.106-1.929-5.222.388-5.605.939zm9.334.826c0-.827-2.644.087-2.089.263.555.175 2.089.563 2.089-.263zm-11.726-1.24a7.212 7.212 0 012.842-.576c.331-.851-5.764 0-5.579.476.165.189.37.342.602.451a1.92 1.92 0 001.499.054c.239-.091.456-.229.636-.405v0zm2.551 41.391c1.455 1.39 2.34-.626 3.094-.926 1.031-.388-5.777-1.653-3.094.926zm10.721-15.65a60.253 60.253 0 00-5.684 6.01c0 .15 2.882 2.429 2.644 2.504-.251-.488-.159-.851.277-1.077-.264 0 7.219 5.935 7.549 2.504.093-.914-3.292-2.879-3.437-4.156-.146-1.278 1.322-2.592 1.89-3.756a19.662 19.662 0 013.398-4.245c2.221-1.94 18.323-8.338 17.609-8.914-1.719-1.39-16.076 3.055-18.402 4.432-1.256.826-5.804 6.698-5.844 6.698zm157.477-3.255a4.758 4.758 0 002.13.045 4.63 4.63 0 001.916-.884c.343-3.568-16.274 0-4.046.839zm-12.771 1.803c0-.776-2.644.288-1.586.676.595.213 1.586.1 1.586-.676zm-70.779-13.872c1.004.588 9.968-.826 10.272-2.504.304-1.678-5.196-2.153-5.024-.851-.991-7.387-3.953 4.119-5.248 3.355zm-7.734-7.312a4.493 4.493 0 00-1.15 1.553c2.512 2.278 8.633 4.031 9.161 0 .45-3.418-8.011-2.479-8.011-1.553zm-2.644-1.452c1.626.714-1.428.789-1.613.889-.872.413 3.239.188 3.966-.1.727-.288 6.187-1.803 5.182-2.967-4.032-4.808-8.315 1.84-7.535 2.178zm31.926 21.71c-1.15 2.391 2.023.714 2.049.313a1.268 1.268 0 00-.396-.416 1.36 1.36 0 00-.548-.211 1.405 1.405 0 00-.591.037 1.337 1.337 0 00-.514.277v0zm-95.871-24.039c.806.852 5.671.939 5.883-.563.066-.514-4.045-1.252-4.297-1.165.701-.1-1.15 2.179-1.586 1.728zm62.649-1.339c.199-.777-3.106-.438-2.247.3.304.263 2.049.476 2.247-.3zm149.201 37.497c.225.163 4.627-.125 3.755-1.102-2.063-2.341-6.478.989-6.148 1.152.794-.038 1.587-.05 2.393-.05zm-73.146-14.398a8.299 8.299 0 005.447 1.039c1.322-.238 4.772-2.166 3.463-2.604.622.213 2.446 4.157 3.517 1.102.899-2.504-1.639-1.928-3.966-2.642-.198-.062-4.297-.163-4.323-.163.621-.112-8.011 1.277-4.138 3.268zm10.391 6.623c2.644-.601-6.848-3.605-4.984-.826.595.901 4.098 1.039 4.984.826z" stroke="gray" stroke-miterlimit="10"/><path d="M628.083 176.043l1.89.414c.489 0-.621-.614-.476-.701-.568.338 3.345-.939 2.446-1.252.066 0-7.668-4.357-7.774-2.843.119-1.69.78 2.73.516 1.916-1.428-4.47-11.078-9.365-16.485-10.467-3.001-.613-8.117-.513-9.942.288.146-.075 1.23 2.191-.251 3.055-.687.401-3.966-2.329-3.199-2.667.767-.338 1.732 1.19 1.93-.263.145-1.176-6.332.476-7.271.601a37.581 37.581 0 01-4.706-.338c-2.049-.187-.952 1.528-1.798 1.916.727-.326-2.644-3.08-2.644-3.055-2.948-2.366-2.525-2.804-8.012-3.205-1.679-.125-9.888 0-10.721-2.366-.238-.701 2.499.137 1.771-1.014-1.612-2.504-8.156.363-8.236.626.461-.255.903-.54 1.322-.852a8.1 8.1 0 00-1.89-.601c-.569-.876 2.644 0 2.644-.463.476-2.679-13.656-1.102-12.268.726a1.533 1.533 0 001.322 0c-.899-.476.158 3.243.066 2.116 0 .213-3.213-.351-3.741 0 .274.262.602.467.965.601 0 0-8.924-1.603-9.532-1.74-.608-.138-1.626 3.53-2.974 3.455-2.01-.112-3.543-4.645-4.561-4.582a3.737 3.737 0 001.811.338c2.551-1.415-6.359-6.423-8.263-6.047-1.388.275-1.679 3.092-2.181 3.167-.754.126-7.932-.162-8.13-.951-.133-.426.965-.952.502-1.064-3.702-.914-6.61.726-8.91.939-.608 0 .119-2.041-.78-2.191-.436-.075-6.465 0-5.923.638.331.113.674.2 1.018.288.093.751-7.548 1.903-7.707 2.304 1.639-3.994 14-5.008 12.995-9.227-.304-1.252.516-2.292-2.221-3.531-3.49-1.553-6.121.926-9.254.188a8.204 8.204 0 011.216-1.628c0 .326-4.375-.801-4.917-.588.37-.151 3.014-.564 2.432-1.428-1.996-2.879-6.61.789-8.276 1.941.86-.588-3.212 4.52-3.358 2.116.335.33.702.627 1.098.889.185-.551-4.68.476-4.931.388.145-.338.304-.664.476-.989a35.57 35.57 0 00-5.447.989c.237.355.604.614 1.031.726-.079-.588-8.143 2.028-8.738 2.291-1.904.839-.926.764-1.745 1.803-.476 0-.965 0-1.441-.087-.172.175 1.652.989 1.665 1.139a8.462 8.462 0 01-1.322.087s2.01 1.127 1.098 1.916c-.542.463-3.675.213-4.574.388-12.533 2.504 0 3.305-2.433 6.448-.965 1.252-7.231-3.919-9.069-2.191-.158.15 2.023 1.59 1.534 1.715-.952.251-2.406-1.064-3.094.188-.542 1.002 4.429 2.592 4.046 3.03 0 0-5.288-1.039-5.288-1.114-1.045-1.127 1.797-4.345-.424-5.008-2.22-.664-3.529 9.452-2.644 10.604 2.393 3.08 6.862 1.452 8.369 6.147.793 2.504-4.588-3.48-2.248-2.504-1.599-.651-1.084-1.965-3.199-1.615-3.014.488-.145 2.116-1.322 3.468-1.322 1.59-3.107 3.894-4.944 4.282-.503.113-5.011-.113-4.601-1.252-.066.15 5.949-.576 6.954-3.756.635-2.016-.423-3.631-.886-5.934-.132-.664.199-7.613.251-7.512-3.556-5.547-9.478.776-9.782 4.707.079-1.089-.133 4.082-.397 3.431 0 0 6.425 3.906 2.644 4.482-2.644.425-13.22-8.414-16.485-6.648.859-.464 5.737 7.937 1.031 6.134-1.851-.713.066-.876-4.191-.513 0 0-6.808 1.077-6.279.676.528-.4 1.467-.814 1.322-1.815 0 .638-8.897 3.393-10.14 3.906-1.732.714-1.322 3.756-4.521 1.74-3.2-2.015 1.599-1.928 1.996-2.366 1.441-1.64-5.87-3.418-5.605-2.379 0-.288 1.718 5.196.343 4.245 3.424 2.341-.542 2.115-.766 2.278-3.966 3.005-3.966-.238-4.746 5.133-.133.902-3.279-.914-3.768-.551-.648-.388-1.322-.788-1.917-1.189-1.163.513-1.322 1.177-.529 2.003 1.917-1.026 2.538 3.944-.806 1.44-.82-.613-5.354-10.016-7.205-9.19 1.322-.601 20.094 7.863 14.344-1.89-1.098-1.878-12.797-6.561-13.789-5.384a2.739 2.739 0 001.243-.413c-.159-1.252-3.028 0-3.345-.288-.78-.814-2.644 1.014-3.212-.989.105.388 3.04-.363 3.12-.751.621-3.243-5.394-.351-4.654-.326-.595 0 .317-1.752.264-1.84-1.216-2.216-2.247 1.878-2.921 1.878-.238 0 .159-1.941-.265-1.678-.806.814-1.599 1.64-2.406 2.504-.872.163 1.706-2.679 1.693-2.742-.252-1.477-2.922 1.353-2.909 1.353.833-.677-3.358 2.253-2.128 1.903-1.613.463.423-3.443.621-2.717.106.338-2.446.275-2.406.851.362.341.606.777.701 1.252a5.742 5.742 0 00-1.904-.063c.216.378.548.683.952.877a7.41 7.41 0 01-2.234-.726c.105 0 .714 2.166 0 1.753-1.243-.777-.979-2.029-2.644-1.315-.132 0-3.623 2.504-3.556 2.88.066.375 1.705-.326 1.441.989 0 0-2.949 0-2.843.125.119-.488.251-.964.41-1.453a62.536 62.536 0 01-5.024 4.22c1.322 0 4.27-3.08 5.672-1.853 0 0-.212 1.352-.238 1.364-3.966 1.503-5.077 7.6-8.739 9.115-.317.138 1.494 1.252.886 1.502-2.089.764-2.102 1.528-3.834 2.88-.132.1-1.322-1.44-1.401-.476-.198 1.978-1.229.451-2.274 1.928.09.17.217.32.372.441.154.12.334.209.527.26-1.11-2.328-3.966 3.756-3.86 3.281-.635 3.681 1.904 2.504 2.102 3.092.568 1.891-2.314 1.002-2.181.902a10.317 10.317 0 00-.291 1.652c0 .689 1.547-.751 1.837 0 .199.501-.965 1.027-1.123 1.252-1.957 2.83 6.61.639 5.592.852 1.322-.288 2.102-2.354 2.895-2.792.476-.276 4.177 10.667 4.548 10.792 1.745.626 5.38-4.395 5.962-4.557-.238.575-.542.713-.926.413.344-2.942 4.059-5.271 3.966-7.512 0-2.93-3.503-1.54-2.366-5.847.648-2.504 2.644-2.717 3.966-4.482 1.071-1.44 2.829-5.597 4.852-6.26 9.399-2.942-2.182 7.437-2.472 7.962-.727 1.252-.199 6.336.449 6.949 2.644 2.504 7.602.651 10.47-.088.24-.373.51-.729.807-1.064-.3.333-.57.689-.807 1.064a6.827 6.827 0 013.252 1.252c.635.702-8.064 1.603-7.68 1.428-5.579 2.504-.199 2.429-1.6 3.956-1.666 2.504-2.009.601-2.644 1.139-.225.188-4.363.476-2.829 3.406 1.494 3.18-1.467 3.956-3.332 4.595.159 0-4.864.463-6.067.613-2.644.301-1.243.651-2.512-1.077-.542-.726-3.609 2.004-4.178 1.603a2.146 2.146 0 010-1.189c-.727-.188-2.935 0-2.644-1.816 0-.325 1.917.964 2.076.163.291-1.515-.912-.513-1.322-1.252-.225-.338 2.062-3.994.872-5.233-.806-.839-2.141 2.015-2.141 2.015-.86.814-1.693-.638-1.825 2.755 0 1.089 2.208 3.568 1.64 4.632-.423.814-5.222 1.653-6.121 2.204a42.167 42.167 0 00-4.508 4.269 23.085 23.085 0 01-3.054 2.88c-1.322.588-4.204.25-4.64.488-.992.526.912 1.953 0 2.667-.913.713-3.53-1.503-4.138-.414-1.666 2.918.819.702 2.287 2.918 2.009 3.042 5.129 6.673.463 8.914-2.169 1.051-7.483-1.653-9.254-.751-3.319 1.715-.728 1.565-1.441 4.482-1.455 5.947-1.322 8.438 3.847 10.016 3.609 1.114 7.429.413 10.43-3.393 2.38-3.03 3.808-8.288 7.443-10.429-.82.488 7.601-.902 6.901-.927 3.609.175 1.322-.313 4.442 1.953-.093-.075 11.898 10.342 8.513 10.342 1.917 0 1.322-4.595 1.455-4.708a2.52 2.52 0 011.17.085c.376.12.715.328.984.604-1.322-.376-13.219-12.52-7.403-12.22.794 0 7.047 6.736 9.043 7.8a2.308 2.308 0 010 0c-1.957-1.089 5.222 10.354 5.222 7.688 0-2.354-3.239 5.834.991 3.63a5.046 5.046 0 00-.291-1.765c.381.1.783.1 1.164 0 .621-.726-1.322-.626-.899-1.001.423-.376 2.419.701 2.128-.827-.344-1.853-1.401 0-2.128-.738.238.25-.304-3.756-.648-3.556.67.182 1.356.307 2.049.375 1.124-.475 7.126-.438 8.58-1.815-.384.363-2.406-3.042-2.274-3.756a22.508 22.508 0 012.882-4.294c.687-.927 1.005-3.055 2.432-3.681.899-.401 4.918-.251 5.143.901-.68.52-1.438.941-2.247 1.252-.08-.4 1.824 2.204 1.771 2.154-.053-.05 5.169-1.252 5.288-1.403.304-.5-4.706-.225-2.3-2.666.568-.564 6.2-2.504 6.61-1.741.092.188-3.966 3.756-3.821 4.432.529 2.392 8.263 3.694 8.012 6.26-.344 3.531-4.786 2.292-7.39 2.242-1.111 0-1.997-1.19-3.081-1.252-3.556-.213-5.645.563-9.003 1.452-4.309 1.139-9.082 3.255-4.084 8.075 2.339 2.266 4.627 1.252 7.271 1.352.872 0 6.186-1.089 6.9-.651.714.439-1.546 6.398-1.824 7.037l.886.388c0 .162 0 .35-.066.513 0-.163 0-.351.066-.513l-.86-.376c-2.644 5.872-7.667 4.67-14.211 3.506-1.732-.301-3.133-1.09-4.865-1.315-2.803-.363-1.322-2.504-5.05-.688-1.23.613-.886 2.967-1.018 3.017-2.208.826-11.726-2.241-14.185-4.633-2.459-2.391 1.705-4.432-.159-6.923-1.137-1.515-8.884-.15-11.078.075a45.562 45.562 0 00-7.932 1.978c-2.71.726-4.905.514-7.43 1.14-2.141.538-1.322-.314-3.159.638 1.983-1.002-4.27 4.407-3.504 3.243-.951 1.44-1.692 3.03-2.644 4.482-.687 1.127-.502 2.604-1.639 4.219-.74 1.064-2.247 1.252-3.08 2.053a28.132 28.132 0 00-5.486 8.326c-1.455 3.493-.595 4.057-.714 7.112-.119 2.842-1.058 5.871-.965 8.676.105 3.08 1.573 4.319 3.159 6.748 3.57 5.496 7.8 10.58 14.648 11.268a32.58 32.58 0 0010.721-1.415c.45-.112 5.037-2.504 5.513-1.965a44.178 44.178 0 003.887 1.978c.608.275.37 1.665 1.15 2.003.78.338 1.652-.789 2.3-.401 3.636 2.166 2.234.288 4.085 4.257.357.877-.714 3.681-.7 4.119.079 3.569 1.493 4.094 3.688 7.713 1.811 2.967 4.111 8.764 3.622 12.207-.529 3.643-3.344 6.798-3.516 10.792-.291 2.679 3.741 8.989 4.362 11.794 1.124 5.008 2.75 8.075 4.522 12.833 2.406 6.473.343 7.875 7.932 6.973 7.376-.851 11.567-3.042 15.427-10.016a33.06 33.06 0 001.322-5.571c2.644-3.606 4.204-1.64 4.931-6.348.516-3.342-1.692-3.33.225-6.535 1.534-2.579 5.751-2.967 7.39-5.284 3.384-4.82-.132-10.141-1.097-15.024-1.045-5.22 1.771-8.989 5.565-12.87 1.56-1.615 20.24-20.257 14.437-22.286-3.966-1.414-8.448 4.007-13.022 1.252m33.896-168.206c1.52-2.028-6.61-.914-4.786.614.873.726 4.085.313 4.786-.614zm-8.527.977a31.6 31.6 0 01-2.314.826c-1.018 1.077 5.156.902 5.553-.35.251-.764-3.345-.676-3.239-.476zm-.251-2.792a13.632 13.632 0 003.093-1.14c-.648-.838-5.195.802-5.288.514.293.253.642.441 1.022.55.38.108.781.134 1.173.076v0z" stroke="gray" stroke-miterlimit="10"/><path d="M550.124 213.216c1.057 2.504-2.102 9.653-.45 11.656-1.123-1.365 2.512.137 2.539.15.026.012-1.455-4.119-1.322-4.294 1.322-2.792 2.644-1.49 3.093-2.041.793-1.014-3.873-12.27-3.212-12.67-1.878 1.139-1.217 5.897-.648 7.199zm-119.72-60.81a4.367 4.367 0 002.644-.626c1.031-1.966-4.891.263-2.644.626zm15.864.2c-.106-.826-1.931.238-1.322.576.608.338 1.414.251 1.322-.576zm-25.488-29.009l1.507-.751c.489-1.59-4.495.376-4.31.601a4.168 4.168 0 002.803.15v0zm166.294 225.711c.106.626 4.296 3.944 4.891 3.53.595-.413-4.997-4.119-4.891-3.53zm-408.207-82.282c-.939-1.677.211 3.318.634 2.392a16.561 16.561 0 01-.634-2.392v0zm27.59 27.457c1.242.263 1.652-.138 1.203-1.177-.886-.776-1.613.789-1.203 1.177zm285.591 23.162c0-.463-1.322-.238-.885.413.436.651.885.05.885-.413zm10.312 9.991a4.47 4.47 0 001.996.062c.886-.701-4.798-1.627-4.64-1.552.05-.378.256-.723.573-.957a1.58 1.58 0 011.119-.295c-1.48.939-14.423-3.18-13.563-.276.33 1.227 13.934 3.844 14.515 3.018zm15.336.062c1.322 0 1.467-.163.542-.526-.661-.1-6.848.526-6.729.777.806 1.665 5.063-.188 6.187-.251zm-10.048-.626c-.476 1.115-1.639-.388-2.247.376-1.243 1.577 4.27 1.54 4.746.451.291-.626-2.261-1.34-2.499-.827zM493 311.435c3.768 3.643 1.93 6.786 8.143 7.099 5.169.25 5.46-3.644 8.818-7.625-.225.263-2.221-4.207-2.194-4.62.105-1.903 2.485-1.628 2.895-2.892.41-1.265-4.799-2.166-5.077-2.103-1.679.35-.832 3.155-3.714 2.942-.093 0-5.064 5.396-5.077 5.433.37-.838-6.412-.776-3.794 1.766zm-19.724-1.402c-.106.513.449 2.015 1.044 1.402.595-.614-.925-1.916-1.044-1.402zm2.473 4.457c-.106.25.449 1.252.793.976.344-.275-.489-1.803-.793-.976z" stroke="gray" stroke-miterlimit="10"/><path d="M488.162 320.236c-.146-2.178 1.15-1.602 1.137-3.005 0-.613-2.102-2.504-2.142-1.339.403.376.758.796 1.057 1.252-.436 1.039-5.552-6.348-5.816-6.623-1.19-1.252-11.528-8.764-11.991-7.788-.33.726 7.932 11.994 9.029 13.422 1.098 1.427 9.202 10.992 8.726 4.081zm25.092 10.292c0-1.402-2.949-.651-3.094-.876-.145-.226 3.094 2.128 3.094.876zm-3.345-13.396c-.238.413 3.146 5.095 1.745 5.646 1.322-.513.145-5.709 1.441-5.108 2.459 1.139-.264 4.357 3.027 1.928-1.745 1.252.093-8.564 1.428-5.784.172.375-7.443 2.266-5.539-.676 2.076-3.218 6.703.463 8.527-3.105-1.097 2.153-5.632-.476-7.139.488-2.353 1.502-2.181 4.407-3.49 6.611zm15.718 1.189a25.6 25.6 0 004.442 1.139c1.851 0-5.341-3.956-4.442-1.139zm.252-8.138c0-3.481-3.054 3.693-.251 3.167 1.85-.35.251-3.23.251-3.167zm-5.619 19.418c.859-1.077 3.741-1.252 4.124-2.266.212-.601-4.428 1.34-4.865 1.39-.674.1-2.644 1.465-1.322 2.128a2.385 2.385 0 001.223-.342c.366-.222.657-.537.84-.91zm1.93-11.18c.212.827 1.653 1.252 2.049.576.397-.676-2.287-1.54-2.049-.576zm-196.74-82.67c-.462.814.582 5.472 2.499 3.181 1.573-1.891-1.296-5.334-2.499-3.181zm10.867 5.559c.357-.075-3.834-.35-3.464.702a12.676 12.676 0 003.675 2.228c.319-.96.699-1.9 1.137-2.817a1.102 1.102 0 00-1.348-.113v0z" stroke="gray" stroke-miterlimit="10"/><path d="M38.338 570.962h576.577" stroke="#263238" stroke-linecap="round" stroke-linejoin="round"/><path d="M96.507 526.967s-35.02-58.243-26.943-73.055c8.078-14.811 28.74 11.832 28.74 11.832s-17.966-54.299-8.077-78c9.889-23.7 26.929 0 27.762 16.789.833 16.79-3.583 45.411-3.583 45.411s7.179-59.233 24.233-41.467c17.053 17.766-21.549 77.011-21.549 77.011s26.043-13.772 25.118 3.956c-.925 17.728-31.424 33.566-31.424 33.566" fill="#fff"/><path d="M96.81 516.112s-32.415-28.634-16.63-41.467c15.784-12.833 24.1 13.772 24.1 13.772s-17.45-81.943 10.814-84.91c28.264-2.967 7.469 71.088 7.469 71.088s24.1-31.6 22.474-5.922c-1.626 25.679-37.426 47.439-37.426 47.439m5.116-5.221l-21.905-22.474m17.345 24.214l5.922-65.692m-6.848 60.935l19.632-24.64" stroke="#263238" stroke-miterlimit="10"/><path d="M135.624 503.291H75.05l6.055 67.671h48.465l6.054-67.671z" fill="#263238"/><path d="M526.156 159.98l-68.533 4.032c-3.876.228-7.511 1.859-10.151 4.556-2.641 2.697-4.085 6.252-4.034 9.93l.344 26.079-19.923 2.003 20.082 9.816a13.666 13.666 0 001.238 5.48 14.331 14.331 0 003.364 4.612 15.243 15.243 0 004.975 3.035 15.863 15.863 0 005.824.995l66.536-1.152c3.862-.067 7.55-1.532 10.308-4.093 2.758-2.56 4.377-6.023 4.525-9.679l1.533-40.765a13.63 13.63 0 00-1.061-5.867 14.303 14.303 0 00-3.491-4.951 15.256 15.256 0 00-5.316-3.177 15.9 15.9 0 00-6.22-.854v0z" fill="#fff" stroke="#263238" stroke-miterlimit="10"/><path d="M512.275 166.716h-44.882v26.768h44.882v-26.768z" fill="#8C8C8C" stroke="#263238" stroke-linecap="round" stroke-linejoin="round"/><path d="M512.275 166.716h-25.488v26.768h25.488v-26.768z" fill="#696969" stroke="#263238" stroke-linecap="round" stroke-linejoin="round"/><path d="M498.976 166.716h-18.284v26.768h18.284v-26.768z" fill="#fff" stroke="#263238" stroke-linecap="round" stroke-linejoin="round"/><path d="M467.062 215.143v-6.798c0-3.268 2.446-5.446 6.135-5.446 3.688 0 6.134 2.128 6.134 5.346 0 .15-.133.25-.331.275l-1.176.076c-.212 0-.344 0-.344-.151v-.15a3.946 3.946 0 00-1.255-2.868 4.404 4.404 0 00-3.028-1.188 4.407 4.407 0 00-3.029 1.188 3.95 3.95 0 00-1.255 2.868v6.924c0 1.075.452 2.107 1.255 2.868a4.407 4.407 0 003.029 1.188 4.404 4.404 0 003.028-1.188 3.95 3.95 0 001.255-2.868.254.254 0 01.097-.221.295.295 0 01.247-.055H479c.198 0 .331 0 .331.125v.126c0 3.242-2.446 5.396-6.134 5.396-3.689 0-6.135-2.154-6.135-5.447zm15.772-10.779a1.287 1.287 0 01.192-.767c.144-.231.358-.417.614-.532a1.478 1.478 0 011.571.232c.208.184.352.422.414.684.063.262.041.536-.063.785-.104.25-.285.465-.519.617a1.477 1.477 0 01-.794.233 1.358 1.358 0 01-.996-.334 1.267 1.267 0 01-.31-.418 1.204 1.204 0 01-.109-.5zm.502 15.725V208.22a.305.305 0 01.199-.304.349.349 0 01.132-.022h1.177a.328.328 0 01.252.087.312.312 0 01.073.11.283.283 0 01.018.129v11.869a.283.283 0 01-.018.129.312.312 0 01-.073.11.325.325 0 01-.252.086h-1.177a.33.33 0 01-.243-.091.305.305 0 01-.088-.234zm15.693-8.238v8.238a.305.305 0 01-.199.304.349.349 0 01-.132.022h-1.176a.352.352 0 01-.137-.017.315.315 0 01-.189-.18.283.283 0 01-.018-.129v-.889c0-.1-.08-.15-.159 0a5.55 5.55 0 01-1.877 1.128c-.7.252-1.447.367-2.195.337-2.221 0-4.309-1.014-4.309-3.618 0-2.605 1.983-4.007 5.38-4.007h3.054c.018.002.036 0 .053-.005a.129.129 0 00.045-.027.113.113 0 00.029-.043.12.12 0 00.005-.05v-.914a2.378 2.378 0 00-.156-1.125 2.494 2.494 0 00-.665-.945 2.686 2.686 0 00-1.037-.569 2.777 2.777 0 00-1.196-.078c-1.652 0-2.723.639-3.014 1.678a.293.293 0 01-.13.21.308.308 0 01-.253.04l-1.322-.15c-.212 0-.344-.1-.317-.263.343-1.815 2.273-3.055 4.97-3.055 3.2-.05 4.945 1.665 4.945 4.107zm-1.851 4.557v-1.903a.106.106 0 00-.006-.05.123.123 0 00-.028-.043.129.129 0 00-.045-.027.137.137 0 00-.053-.005h-2.737c-2.274 0-3.821.914-3.821 2.504 0 1.59 1.322 2.191 2.869 2.191 1.944.025 3.821-.939 3.821-2.667zm5.645.764a10.164 10.164 0 01-.37-3.042 10.68 10.68 0 01.344-3.018 5.178 5.178 0 011.982-2.467 5.633 5.633 0 013.121-.936 5.63 5.63 0 013.12.936 5.18 5.18 0 011.983 2.467c.273.993.398 2.017.37 3.043a10.197 10.197 0 01-.37 3.042 5.131 5.131 0 01-1.963 2.494 5.589 5.589 0 01-3.127.949 5.592 5.592 0 01-3.128-.949 5.135 5.135 0 01-1.962-2.494v-.025zm8.461-.513c.167-.825.237-1.665.211-2.504a9.937 9.937 0 00-.211-2.504 3.318 3.318 0 00-1.258-1.744 3.63 3.63 0 00-2.113-.671c-.763 0-1.505.235-2.114.671a3.317 3.317 0 00-1.257 1.744 14.825 14.825 0 000 5.008 3.318 3.318 0 001.257 1.743 3.636 3.636 0 002.114.672 3.63 3.63 0 002.113-.672 3.32 3.32 0 001.258-1.743z" fill="#263238"/><path d="M239.11 192.069l-27.101-6.936 6.121-38.048a11.486 11.486 0 00-.425-5.389 11.951 11.951 0 00-2.86-4.676 12.822 12.822 0 00-4.725-3.029 13.432 13.432 0 00-5.646-.778l-57.547 4.507a13.297 13.297 0 00-4.784 1.289 12.664 12.664 0 00-3.898 2.925 11.9 11.9 0 00-2.419 4.115 11.451 11.451 0 00-.572 4.679l4.23 49.905c.25 2.946 1.631 5.702 3.882 7.749 2.251 2.046 5.216 3.24 8.334 3.356l44.287 1.653c3.134.123 6.206-.854 8.626-2.744 2.42-1.89 4.018-4.56 4.488-7.497l1.15-7.124 28.859-3.957z" fill="#fff" stroke="#263238" stroke-miterlimit="10"/><path d="M198.842 143.855H153.96v26.768h44.882v-26.768z" fill="#8C8C8C" stroke="#263238" stroke-linecap="round" stroke-linejoin="round"/><path d="M198.842 150.34H153.96v13.81h44.882v-13.81z" fill="#fff" stroke="#263238" stroke-linecap="round" stroke-linejoin="round"/><path d="M164.39 180.288h1.177a.33.33 0 01.243.092.305.305 0 01.07.108c.015.04.021.083.017.126v16.676a.284.284 0 01-.017.126.305.305 0 01-.181.179.33.33 0 01-.132.021h-1.177a.331.331 0 01-.252-.087.293.293 0 01-.091-.239v-7.512a.106.106 0 00-.006-.05.123.123 0 00-.028-.043.117.117 0 00-.046-.026c-.017-.006-.035-.008-.053-.006h-8.275a.12.12 0 00-.053.006.117.117 0 00-.046.026.123.123 0 00-.028.043c-.006.016-.008.033-.006.05v7.512a.29.29 0 01-.091.239.328.328 0 01-.252.087h-1.177a.325.325 0 01-.248-.087.28.28 0 01-.082-.239v-16.726a.283.283 0 01.082-.239.325.325 0 01.248-.087h1.177a.331.331 0 01.252.087.29.29 0 01.091.239v7.399a.106.106 0 00.006.05.123.123 0 00.028.043.133.133 0 00.046.027.135.135 0 00.053.005h8.289c.017.002.036 0 .053-.005a.129.129 0 00.045-.027.123.123 0 00.028-.043.106.106 0 00.006-.05v-7.399a.296.296 0 01.106-.201.329.329 0 01.224-.075zm5.923 14.035c-.27-.993-.39-2.017-.357-3.042-.032-1.016.079-2.03.331-3.018a5.196 5.196 0 011.988-2.462 5.649 5.649 0 013.121-.933c1.117 0 2.207.326 3.121.933a5.192 5.192 0 011.989 2.462c.273.993.398 2.017.37 3.043.03 1.025-.095 2.05-.37 3.042a5.143 5.143 0 01-1.969 2.489 5.605 5.605 0 01-3.128.946 5.604 5.604 0 01-3.127-.946 5.143 5.143 0 01-1.969-2.489v-.025zm8.461-.526a10.74 10.74 0 00.211-2.504c.035-.839-.036-1.68-.211-2.504a3.307 3.307 0 00-1.25-1.751 3.623 3.623 0 00-2.115-.675c-.763 0-1.506.237-2.114.675a3.307 3.307 0 00-1.25 1.751 10.38 10.38 0 00-.212 2.504c-.034.84.037 1.68.212 2.504a3.3 3.3 0 001.25 1.751 3.623 3.623 0 002.114.676c.764 0 1.507-.238 2.115-.676a3.3 3.3 0 001.25-1.751zm5.857 3.443v-16.677a.29.29 0 01.091-.238.328.328 0 01.252-.087h1.177a.33.33 0 01.243.092.296.296 0 01.087.233v16.677a.284.284 0 01-.017.126.305.305 0 01-.181.179.348.348 0 01-.132.021h-1.177a.328.328 0 01-.252-.087.299.299 0 01-.091-.239zm15.573-8.188v8.238a.293.293 0 01-.092.239.32.32 0 01-.252.087h-1.176a.334.334 0 01-.252-.087.293.293 0 01-.092-.239v-.889c0-.1-.079-.15-.159 0a5.535 5.535 0 01-1.878 1.124c-.7.25-1.446.362-2.193.329-2.221 0-4.31-1.014-4.31-3.606 0-2.592 1.983-4.006 5.38-4.006h3.028a.12.12 0 00.053-.006.115.115 0 00.073-.069c.006-.017.008-.034.006-.051v-1.064a2.381 2.381 0 00-.151-1.129 2.508 2.508 0 00-.664-.95 2.675 2.675 0 00-1.039-.572 2.78 2.78 0 00-1.2-.078c-1.639 0-2.71.651-3.001 1.69a.275.275 0 01-.045.119.308.308 0 01-.351.119l-1.322-.138c-.199 0-.331-.1-.305-.275.331-1.803 2.274-3.043 4.958-3.043 3.226.05 4.984 1.753 4.984 4.257zm-1.904 4.495v-1.903a.12.12 0 00-.005-.05.12.12 0 00-.074-.07.135.135 0 00-.053-.005h-2.736c-2.274 0-3.821.914-3.821 2.504 0 1.59 1.322 2.203 2.882 2.203 1.97.025 3.807-.914 3.807-2.679z" fill="#263238"/><path d="M547.691 257.499h-35.258c-7.128 0-13.964 2.682-19.004 7.455-5.04 4.774-7.872 11.248-7.872 17.998v9.403l-17.569-.639 17.622 10.893v7.048c0 6.752 2.831 13.228 7.871 18.003 5.04 4.775 11.876 7.46 19.005 7.463h35.258c7.129-.003 13.965-2.688 19.005-7.463 5.04-4.775 7.871-11.251 7.871-18.003v-26.705c0-3.347-.697-6.66-2.051-9.752a25.428 25.428 0 00-5.839-8.264 27.037 27.037 0 00-8.738-5.514 28.178 28.178 0 00-10.301-1.923v0z" fill="#fff" stroke="#263238" stroke-miterlimit="10"/><path d="M516.175 304.987h1.176a.353.353 0 01.129.021.309.309 0 01.181.171c.016.038.023.08.021.121v16.677a.284.284 0 01-.088.234.315.315 0 01-.111.071.342.342 0 01-.132.021h-1.176a.32.32 0 01-.252-.087.301.301 0 01-.074-.11.283.283 0 01-.018-.129v-7.512a.106.106 0 00-.006-.05.1.1 0 00-.028-.043.129.129 0 00-.045-.027.135.135 0 00-.053-.005h-8.276a.135.135 0 00-.053.005.129.129 0 00-.045.027.11.11 0 00-.028.043c-.006.016-.008.033-.006.05v7.512a.283.283 0 01-.018.129.311.311 0 01-.19.18.347.347 0 01-.136.017h-1.176a.347.347 0 01-.136-.017.311.311 0 01-.19-.18.283.283 0 01-.018-.129V305.3a.3.3 0 01.022-.125.307.307 0 01.189-.171.332.332 0 01.133-.017h1.176a.332.332 0 01.247.083c.032.03.058.066.075.105a.3.3 0 01.022.125v7.4a.11.11 0 00.034.093.129.129 0 00.045.027.135.135 0 00.053.005h8.276c.018.002.036 0 .053-.005a.129.129 0 00.045-.027.1.1 0 00.028-.043c.006-.016.008-.033.006-.05v-7.4a.3.3 0 01.022-.125.322.322 0 01.075-.105.334.334 0 01.247-.083zm14.462 14.148a.288.288 0 01.072-.11.313.313 0 01.115-.069.322.322 0 01.263.028l.753.401c.186.1.265.25.159.413a4.945 4.945 0 01-1.996 2.043 5.328 5.328 0 01-2.856.661 5.016 5.016 0 01-3-.759 4.604 4.604 0 01-1.891-2.333 9.128 9.128 0 01-.502-3.418c-.049-.961.031-1.925.238-2.867a4.668 4.668 0 011.854-2.629 5.132 5.132 0 013.196-.914 5.055 5.055 0 013.54 1.106 4.544 4.544 0 011.682 3.151c.138.827.191 1.666.158 2.504a.264.264 0 01-.017.127.305.305 0 01-.191.174.329.329 0 01-.136.012h-8.355a.12.12 0 00-.098.032.104.104 0 00-.028.043c-.006.016-.008.033-.006.05a7.48 7.48 0 00.159 1.815 3.191 3.191 0 001.302 1.825 3.515 3.515 0 002.241.592 3.746 3.746 0 001.965-.472 3.474 3.474 0 001.379-1.406zm-6.834-5.697a6.657 6.657 0 00-.212 1.69.11.11 0 00.034.093.129.129 0 00.045.027.137.137 0 00.053.005h6.716a.133.133 0 00.049-.009.126.126 0 00.04-.028.107.107 0 00.03-.088 12.297 12.297 0 00-.145-1.59 3.085 3.085 0 00-1.217-1.795 3.399 3.399 0 00-2.154-.621 3.217 3.217 0 00-2.077.584 2.918 2.918 0 00-1.162 1.732zm12.294 8.539V305.3a.284.284 0 01.023-.125.287.287 0 01.074-.105.321.321 0 01.247-.083h1.177a.324.324 0 01.131.016.293.293 0 01.199.297v16.677a.28.28 0 01-.082.238.31.31 0 01-.248.087h-1.177a.331.331 0 01-.252-.087.298.298 0 01-.074-.109.302.302 0 01-.018-.129zm6.069 0V305.3a.279.279 0 01.021-.121.306.306 0 01.181-.171.348.348 0 01.128-.021h1.177a.334.334 0 01.246.083c.033.03.058.066.075.105.017.04.025.083.022.125v16.677a.283.283 0 01-.091.239.328.328 0 01-.252.087h-1.177a.349.349 0 01-.132-.022.305.305 0 01-.181-.178.284.284 0 01-.017-.126zm6.001-2.917a10.167 10.167 0 01-.37-3.043c-.029-1.015.086-2.03.344-3.017a5.191 5.191 0 011.988-2.462 5.647 5.647 0 013.121-.934c1.117 0 2.207.326 3.121.934A5.188 5.188 0 01558.36 313c.269.993.389 2.018.357 3.043a10.19 10.19 0 01-.357 3.042 5.143 5.143 0 01-1.969 2.489 5.604 5.604 0 01-3.127.946 5.608 5.608 0 01-3.128-.946 5.154 5.154 0 01-1.969-2.489v-.025zm8.461-.513c.167-.825.238-1.665.212-2.504.033-.84-.038-1.681-.212-2.504a3.3 3.3 0 00-1.25-1.751 3.613 3.613 0 00-2.114-.676c-.764 0-1.507.237-2.115.676a3.3 3.3 0 00-1.25 1.751 10.426 10.426 0 00-.211 2.504c-.033.839.038 1.679.211 2.504a3.3 3.3 0 001.25 1.75 3.616 3.616 0 002.115.676c.764 0 1.506-.237 2.114-.676a3.3 3.3 0 001.25-1.75z" fill="#263238"/><path d="M552.715 268.604h-44.882v26.768h44.882v-26.768z" fill="#fff" stroke="#263238" stroke-linecap="round" stroke-linejoin="round"/><path d="M552.953 268.604h-44.882v2.592h44.882v-2.592zm0 4.057h-44.882v2.591h44.882v-2.591zm0 4.044h-44.882v2.591h44.882v-2.591zm0 4.056h-44.882v2.592h44.882v-2.592zm0 4.056h-44.882v2.592h44.882v-2.592zm0 4.057h-44.882v2.592h44.882v-2.592zm0 4.057h-44.882v2.591h44.882v-2.591z" fill="#263238"/><path d="M529.593 268.604h-21.76v14.26h21.76v-14.26z" fill="#263238"/><path d="M508.679 269.806l.198.401.423.062-.304.313.066.439-.383-.201-.37.201.066-.439-.304-.313.423-.062.185-.401zm0 2.642l.198.4.423.063-.304.313.066.438-.383-.213-.37.213.066-.438-.304-.313.423-.063.185-.4zm0 2.629l.198.401.423.062-.304.313.066.439-.383-.213-.37.213.066-.439-.304-.313.423-.062.185-.401zm0 2.629l.198.401.423.075-.304.3.066.439-.383-.201-.37.201.066-.439-.304-.3.423-.075.185-.401zm0 2.642l.198.4.423.063-.304.313.066.438-.383-.213-.37.213.066-.438-.304-.313.423-.063.185-.4zm1.997-9.002l.185.401.423.062-.304.313.066.439-.37-.201-.384.201.066-.439-.304-.313.423-.062.199-.401zm0 2.642l.185.4.423.063-.304.313.066.438-.37-.213-.384.213.066-.438-.304-.313.423-.063.199-.4zm0 2.629l.185.4.423.063-.304.313.066.438-.37-.2-.384.2.066-.438-.304-.313.423-.063.199-.4zm0 2.629l.185.401.423.062-.304.313.066.439-.37-.201-.384.201.066-.439-.304-.313.423-.062.199-.401zm1.982-9.44l.199.401.423.062-.318.313.08.439-.384-.201-.383.201.079-.439-.317-.313.436-.062.185-.401zm0 2.642l.199.4.423.063-.318.313.08.438-.384-.213-.383.213.079-.438-.317-.313.436-.063.185-.4zm0 2.629l.199.401.423.062-.318.313.08.439-.384-.213-.383.213.079-.439-.317-.313.436-.062.185-.401zm0 2.629l.199.401.423.075-.318.3.08.439-.384-.201-.383.201.079-.439-.317-.3.436-.075.185-.401zm0 2.642l.199.4.423.063-.318.313.08.438-.384-.213-.383.213.079-.438-.317-.313.436-.063.185-.4zm1.997-9.002l.185.401.423.062-.304.313.066.439-.37-.201-.384.201.066-.439-.304-.313.423-.062.199-.401zm0 2.642l.185.4.423.063-.304.313.066.438-.37-.213-.384.213.066-.438-.304-.313.423-.063.199-.4zm0 2.629l.185.4.423.063-.304.313.066.438-.37-.2-.384.2.066-.438-.304-.313.423-.063.199-.4zm0 2.629l.185.401.423.062-.304.313.066.439-.37-.201-.384.201.066-.439-.304-.313.423-.062.199-.401zm1.982-9.44l.186.401.423.062-.305.313.08.439-.384-.201-.383.201.066-.439-.304-.313.423-.062.198-.401zm0 2.642l.186.4.423.063-.305.313.08.438-.384-.213-.383.213.066-.438-.304-.313.423-.063.198-.4zm0 2.629l.186.401.423.062-.305.313.08.439-.384-.213-.383.213.066-.439-.304-.313.423-.062.198-.401zm0 2.629l.186.401.423.075-.305.3.08.439-.384-.201-.383.201.066-.439-.304-.3.423-.075.198-.401zm0 2.642l.186.4.423.063-.305.313.08.438-.384-.213-.383.213.066-.438-.304-.313.423-.063.198-.4zm1.983-9.002l.199.401.423.062-.304.313.066.439-.384-.201-.383.201.079-.439-.304-.313.423-.062.185-.401zm0 2.642l.199.4.423.063-.304.313.066.438-.384-.213-.383.213.079-.438-.304-.313.423-.063.185-.4zm0 2.629l.199.4.423.063-.304.313.066.438-.384-.2-.383.2.079-.438-.304-.313.423-.063.185-.4zm0 2.629l.199.401.423.062-.304.313.066.439-.384-.201-.383.201.079-.439-.304-.313.423-.062.185-.401zm1.997-9.44l.185.401.423.062-.304.313.066.439-.37-.201-.383.201.066-.439-.304-.313.423-.062.198-.401zm0 2.642l.185.4.423.063-.304.313.066.438-.37-.213-.383.213.066-.438-.304-.313.423-.063.198-.4zm0 2.629l.185.401.423.062-.304.313.066.439-.37-.213-.383.213.066-.439-.304-.313.423-.062.198-.401zm0 2.629l.185.401.423.075-.304.3.066.439-.37-.201-.383.201.066-.439-.304-.3.423-.075.198-.401zm0 2.642l.185.4.423.063-.304.313.066.438-.37-.213-.383.213.066-.438-.304-.313.423-.063.198-.4zm1.983-9.002l.185.401.436.062-.317.313.079.439-.383-.201-.384.201.08-.439-.317-.313.436-.062.185-.401zm0 2.642l.185.4.436.063-.317.313.079.438-.383-.213-.384.213.08-.438-.317-.313.436-.063.185-.4zm0 2.629l.185.4.436.063-.317.313.079.438-.383-.2-.384.2.08-.438-.317-.313.436-.063.185-.4zm0 2.629l.185.401.436.062-.317.313.079.439-.383-.201-.384.201.08-.439-.317-.313.436-.062.185-.401zm1.983-9.44l.198.401.423.062-.304.313.066.439-.383-.201-.37.201.066-.439-.304-.313.423-.062.185-.401zm0 2.642l.198.4.423.063-.304.313.066.438-.383-.213-.37.213.066-.438-.304-.313.423-.063.185-.4zm0 2.629l.198.401.423.062-.304.313.066.439-.383-.213-.37.213.066-.439-.304-.313.423-.062.185-.401zm0 2.629l.198.401.423.075-.304.3.066.439-.383-.201-.37.201.066-.439-.304-.3.423-.075.185-.401zm0 2.642l.198.4.423.063-.304.313.066.438-.383-.213-.37.213.066-.438-.304-.313.423-.063.185-.4zm1.996-9.002l.185.401.423.062-.304.313.08.439-.384-.201-.383.201.066-.439-.304-.313.423-.062.198-.401zm0 2.642l.185.4.423.063-.304.313.08.438-.384-.213-.383.213.066-.438-.304-.313.423-.063.198-.4zm0 2.629l.185.4.423.063-.304.313.08.438-.384-.2-.383.2.066-.438-.304-.313.423-.063.198-.4zm0 2.629l.185.401.423.062-.304.313.08.439-.384-.201-.383.201.066-.439-.304-.313.423-.062.198-.401zm1.983-9.44l.198.401.423.062-.304.313.066.439-.383-.201-.384.201.08-.439-.304-.313.423-.062.185-.401zm0 2.642l.198.4.423.063-.304.313.066.438-.383-.213-.384.213.08-.438-.304-.313.423-.063.185-.4zm0 2.629l.198.401.423.062-.304.313.066.439-.383-.213-.384.213.08-.439-.304-.313.423-.062.185-.401zm0 2.629l.198.401.423.075-.304.3.066.439-.383-.201-.384.201.08-.439-.304-.3.423-.075.185-.401zm0 2.642l.198.4.423.063-.304.313.066.438-.383-.213-.384.213.08-.438-.304-.313.423-.063.185-.4z" fill="#fff"/><path d="M215.354 296.211h-23.175c-3.48-10.304-10.939-18.983-20.885-24.302-9.946-5.32-21.646-6.887-32.76-4.389-11.114 2.498-20.822 8.878-27.183 17.863-6.361 8.985-8.906 19.913-7.125 30.599 1.78 10.686 7.754 20.341 16.728 27.034 8.973 6.694 20.284 9.933 31.67 9.068 11.386-.864 22.008-5.767 29.741-13.728 7.733-7.961 12.008-18.394 11.969-29.212v-.964l21.02-11.969z" fill="#fff" stroke="#263238" stroke-miterlimit="10"/><path d="M127.031 323.454a30.983 30.983 0 01-2.763 3.869 12.559 12.559 0 00-1.124-1.34 36.335 36.335 0 006.293-12.044l2.168.613c-.106.251-.331.301-.621.276a52.24 52.24 0 01-2.486 5.859l.754.201c0 .15-.172.275-.516.288v15.737h-1.705v-13.459zm17.886.601c.212-.914.476-2.304.701-3.643h-5.195v14.448c0 1.778-.675 2.103-4.337 2.103a6.42 6.42 0 00-.647-1.703h2.816c.343 0 .449-.1.449-.425v-14.423H134.5a21.484 21.484 0 01-2.644 4.682 7.051 7.051 0 00-1.322-1.014 26.009 26.009 0 004.31-10.078l2.168.55c0 .176-.225.276-.569.251a36.913 36.913 0 01-1.322 4.056h12.467a41.134 41.134 0 01-1.177 5.434l-1.494-.238zm-8.355.814c-.079.175-.264.275-.581.275a23.713 23.713 0 01-3.966 8.264 8.44 8.44 0 00-1.388-.852 21.891 21.891 0 003.82-8.288l2.115.601zm9.479 8.338a33.218 33.218 0 00-3.583-8.538l1.547-.514a32.16 32.16 0 013.715 8.451l-1.679.601zm12.493-14.097l.992.238-.159.35a30.9 30.9 0 01-2.512 10.642 18.106 18.106 0 013.107 2.692l-1.071 1.365a17.34 17.34 0 00-2.789-2.579c-1.199 2.134-2.985 3.921-5.169 5.17a7.789 7.789 0 00-1.098-1.364c2.096-1.12 3.801-2.795 4.905-4.82a34.588 34.588 0 00-2.975-1.903l-.317 1.089-1.494-.739c.661-2.178 1.468-5.321 2.221-8.513h-2.644v-1.565h2.975c.423-1.853.78-3.631 1.097-5.221l2.142.25c0 .175-.185.276-.516.301a202.468 202.468 0 01-1.044 4.67h3.966l.383-.063zm-4.706 1.628a227.14 227.14 0 01-1.706 6.648 42.08 42.08 0 013.319 1.965 27.85 27.85 0 002.168-8.613h-3.781zm19.935 4.256v1.603h-6.305v8.188c0 1.903-.78 2.203-5.407 2.153a8.226 8.226 0 00-.648-1.652h3.133c.886 0 1.15 0 1.15-.526v-8.213h-6.398v-1.603h6.398v-4.206h.859a25.63 25.63 0 003.874-4.032h-10.061v-1.565h11.383l.344-.1 1.388.826a.863.863 0 01-.423.238 31.834 31.834 0 01-5.592 5.722v3.067l6.305.1z" fill="#263238"/><path d="M171.53 279.446h-44.882v26.768h44.882v-26.768z" fill="#263238" stroke="#263238" stroke-linecap="round" stroke-linejoin="round"/><path d="M131.949 281.024l1.097 2.091 2.42.325-1.759 1.628.423 2.279-2.181-1.077-2.168 1.077.423-2.279-1.758-1.628 2.419-.325 1.084-2.091zm7.046-.814l.569 1.077 1.242.175-.899.826.212 1.177-1.124-.551-1.11.551.211-1.177-.912-.826 1.256-.175.555-1.077zm1.521 5.434l.555 1.076 1.256.163-.912.839.211 1.177-1.11-.551-1.124.551.212-1.177-.899-.839 1.242-.163.569-1.076zm-3.729 3.556l.555 1.064 1.256.175-.899.839.212 1.177-1.124-.563-1.11.563.211-1.177-.912-.839 1.256-.175.555-1.064zm-5.169 1.627l.555 1.064 1.256.176-.899.838.212 1.177-1.124-.551-1.11.551.211-1.177-.912-.838 1.256-.176.555-1.064z" fill="#fff"/><path d="M401.201 194.661a49.57 49.57 0 00-4.174-19.874c-2.756-6.301-6.795-12.026-11.888-16.848-5.092-4.823-11.137-8.648-17.79-11.258a57.506 57.506 0 00-20.985-3.953h-19.089c-14.544 0-28.492 5.472-38.776 15.211-10.284 9.739-16.061 22.949-16.061 36.722" stroke="#263238" stroke-width="3" stroke-linecap="round" stroke-linejoin="round"/><path d="M401.201 233.123v-38.462m-128.763 0v38.462" stroke="#263238" stroke-width="6" stroke-linecap="round" stroke-linejoin="round"/><path d="M311.821 290.827s3.424 22.649 2.736 28.471c-.687 5.822-2.049 11.643-19.129 5.171-17.08-6.473-47.817 5.183-67.634 27.819s-57.375 98.345-57.375 107.397c0 9.051 7.509 21.284 21.152 23.287s45.768-34.931 45.768-34.931 13.656 73.104 13.656 78.876c0 5.772-6.121 43.995-6.121 43.995h193.33l-7.522-47.225 13.669-104.167s56.701 73.105 68.995 76.372c12.295 3.268 31.424-2.591 36.21-16.175 4.785-13.585-2.737-27.82-12.308-38.174s-69.669-101.575-80.642-109.976c-10.973-8.401-41.669-9.064-52.602-6.472-10.933 2.591-29.375 6.472-34.161 3.881-4.785-2.592-4.772-27.169 0-38.174.04.025-41.63 10.379-58.022.025z" fill="#fff" stroke="#263238" stroke-linecap="round" stroke-linejoin="round"/><path d="M285.116 487.817a72.071 72.071 0 006.729 2.091m-41.987-43.595s3.041 25.14 28.053 38.311m49.747-111.941l13.299 18.405m118.213-.814l3.517-6.937m-9.215-1.94l-9.121 38.173 11.21-22.147m38.867 52.759s14.437-8.764 28.648-8.764" stroke="#263238" stroke-linecap="round" stroke-linejoin="round"/><path d="M465.053 476.436a198.478 198.478 0 0026.163-16.051c11.864-8.624 26.765-12.62 41.643-11.167 13.629 1.389 21.006 17.44 21.363 33.503.357 16.063-8.844 25.816-25.422 28.258-16.578 2.441-36.117-1.039-48.266-3.831a167.917 167.917 0 00-19.539-3.493s-15.838-23.037 4.058-27.219z" fill="#fff" stroke="#263238" stroke-linecap="round" stroke-linejoin="round"/><path d="M554.223 482.721c-.357-16.063-7.734-32.114-21.364-33.503-14.878-1.453-29.778 2.543-41.643 11.167l-1.851 1.34c15.864.513 47.936 6.648 42.912 48.603 14.384-3.268 22.289-12.721 21.946-27.607zM311.82 290.827s3.424 22.649 2.737 28.471c-.516 4.369-1.415 8.764-9.03 7.912 10.894 16.865 42.529 56.453 72.049 2.504-3.437.201-6.213 0-7.694-.776-4.772-2.592-4.772-27.168 0-38.173 0 .062-41.669 10.416-58.062.062z" fill="#fff" stroke="#263238" stroke-linecap="round" stroke-linejoin="round"/><path d="M311.82 290.827s.886 5.885 1.666 12.42c7.926 3.976 16.686 6.234 25.646 6.611 9.901.149 19.622-2.515 27.908-7.65a44.744 44.744 0 012.842-11.381s-41.669 10.354-58.062 0zm-37.545-78.3h-3.768c-4.629 0-8.381 3.554-8.381 7.938v30.373c0 4.384 3.752 7.938 8.381 7.938h3.768c4.629 0 8.382-3.554 8.382-7.938v-30.373c0-4.384-3.753-7.938-8.382-7.938z" fill="#263238" stroke="#263238" stroke-linecap="round" stroke-linejoin="round"/><path d="M274.487 212.564h-4.204v46.174h4.204v-46.174z" fill="#fff" stroke="#263238" stroke-linecap="round" stroke-linejoin="round"/><path d="M403.462 212.527h-3.768c-4.629 0-8.382 3.554-8.382 7.938v30.373c0 4.384 3.753 7.938 8.382 7.938h3.768c4.629 0 8.381-3.554 8.381-7.938v-30.373c0-4.384-3.752-7.938-8.381-7.938z" fill="#263238" stroke="#263238" stroke-linecap="round" stroke-linejoin="round"/><path d="M403.686 212.564h-4.204v46.174h4.204v-46.174zm-163.571 36.484a9.984 9.984 0 00-4.475 1.495 9.316 9.316 0 00-3.179 3.337c-3.067 4.833-12.758 22.712-11.74 28.033 1.018 5.321 43.375 43.006 43.375 45.422 0 2.417-33.671 45.911-56.132 65.242-22.461 19.331-40.308 41.066-43.375 58.468-3.067 17.403 7.655 31.889 18.892 34.793 11.237 2.905 24.999-3.38 40.81-22.235 15.811-18.855 59.199-100.999 65.835-128.956 0 0 1.521-12.52-4.6-19.819-6.121-7.299-21.43-24.164-21.43-24.164s3.067-33.341.516-35.757c-2.552-2.416-5.103 2.905-5.103 2.905s-2.367-11.181-5.619-10.642c-3.556.601-4.587 4.832-4.587 4.832s-2.551-9.728-9.188-2.954z" fill="#fff" stroke="#263238" stroke-linecap="round" stroke-linejoin="round"/><path d="M259.509 257.75s-7.324 27.756-6.61 32.439m-3.596-38.249s-7.76 26.993-8.752 30.749a8.772 8.772 0 00-.176 3.759 8.966 8.966 0 001.419 3.515m-1.679-40.915s-10.96 28.946-10.96 32.001c0 3.055 2.486 6.798 2.486 6.798" stroke="#263238" stroke-linecap="round" stroke-linejoin="round"/><path d="M230.359 370.003a261.073 261.073 0 01-22.395 22.536c-22.474 19.319-40.308 41.066-43.375 58.469s7.655 31.888 18.892 34.793c11.237 2.905 24.999-3.38 40.81-22.236 9.108-10.842 27.325-42.643 42.423-73.029-23.003-5.784-32.495-14.798-36.355-20.533zm51.849-181.439s-.886 67.27 1.784 79.89c2.671 12.62 26.639 34.054 54.202 34.893 27.564.839 49.285-23.124 51.942-35.744 2.657-12.621 0-63.064-.436-83.246-.437-20.182-31.081-38.261-62.134-33.641-31.054 4.62-47.13 21.86-45.358 37.848z" fill="#fff" stroke="#263238" stroke-linecap="round" stroke-linejoin="round"/><path d="M349.696 215.895s1.771 11.769 3.556 14.285c1.785 2.517 4.878 5.897-1.322 8.414-6.2 2.516-11.105-.426-11.105-3.368" stroke="#263238" stroke-linecap="round" stroke-linejoin="round"/><path d="M356.358 257.511s-23.981 2.905-34.636-7.111c0 0 2.644 15.562 10.655 18.091 8.011 2.529 23.981-10.98 23.981-10.98z" fill="#fff" stroke="#263238" stroke-linecap="round" stroke-linejoin="round"/><path d="M325.278 216.308l2.221 6.723" stroke="#263238" stroke-linecap="round" stroke-linejoin="round"/><path d="M315.509 222.618s6.213 3.756 17.754.413" stroke="#263238" stroke-width="2" stroke-linecap="round" stroke-linejoin="round"/><path d="M368.785 216.308l2.221 6.723" stroke="#263238" stroke-linecap="round" stroke-linejoin="round"/><path d="M359.016 222.618s6.213 3.756 17.767.413m-64.381-18.492c2.17-2.74 4.985-4.965 8.22-6.497a24.357 24.357 0 0110.421-2.329m23.98-.852s12.877-3.355 21.761 6.26" stroke="#263238" stroke-width="2" stroke-linecap="round" stroke-linejoin="round"/><path d="M338.433 212.84a11.149 11.149 0 011.681 6.018 11.168 11.168 0 01-1.84 5.976l-.251.376c-1.856 2.823-4.44 5.151-7.51 6.766a21.578 21.578 0 01-10.033 2.461h-2.776a16.82 16.82 0 01-8.04-2.036c-2.445-1.334-4.478-3.252-5.894-5.563v0a12.195 12.195 0 01-1.782-5.549 12.07 12.07 0 011.015-5.719c.963-2.173 2.548-4.047 4.575-5.412a13.838 13.838 0 016.9-2.313l12.638-.752a12.805 12.805 0 016.519 1.354 11.97 11.97 0 014.798 4.393v0zm14.541 0a11.147 11.147 0 00-1.681 6.018 11.17 11.17 0 001.84 5.976l.251.376c1.856 2.823 4.44 5.151 7.51 6.766a21.578 21.578 0 0010.033 2.461h2.776a16.832 16.832 0 008.04-2.036c2.445-1.334 4.478-3.252 5.894-5.564v0a12.15 12.15 0 001.787-5.548 12.038 12.038 0 00-1.02-5.72v0c-.963-2.172-2.548-4.046-4.575-5.411a13.829 13.829 0 00-6.9-2.313l-12.625-.752a12.836 12.836 0 00-6.524 1.354 11.991 11.991 0 00-4.806 4.393v0zm-13.048 2.203s3.966-2.942 11.541 0m-16.868-6.297h21.76m-53.383 6.811h-20.768" stroke="#263238" stroke-linecap="round" stroke-linejoin="round"/><path d="M361.686 170.898s11.502 34.981 28.965 44.02c-.383-11.994-.832-23.262-.991-30.561-.45-20.182-31.08-38.261-62.134-33.641-31.054 4.62-47.063 21.86-45.292 37.848 0 0-.145 10.98-.132 24.915 14.991-6.123 54.466-23.175 79.584-42.581z" fill="#263238"/><path d="M279.128 204.289s58.234-23.124 89.711-52.484m-94.418 33.804s61.064-13.346 96.295-48.49m2.34 18.68s.938 22.686 26.307 43.594" stroke="#737373" stroke-linecap="round" stroke-linejoin="round"/><path d="M366.445 296.962s0 15.249-12.07 39.551c-12.069 24.301-12.585 48.602-4.534 66.706 8.051 18.104 29.692 25.266 52.88 17.165 23.188-8.1 26.162-44.321 23.651-66.243-2.512-21.923-25.118-47.651-30.195-60.522-5.076-12.87-8.553-19.531-8.553-19.531s-13.088 17.152-21.152 20.958l-.027 1.916z" fill="#263238"/><path d="M374.932 279.91c2.909 20.797-.004 41.953-8.447 61.348-14.093 32.026-3.292 66.281 13.154 73.392 16.445 7.111 32.402 4.457 40.387-5.334" stroke="#737373" stroke-linecap="round" stroke-linejoin="round"/><path d="M381.04 272.798s15.97 35.582 9.399 62.275c-6.57 26.692-3.754 60.559 15.97 67.17 19.724 6.61 31.001-6.611 31.001-6.611" stroke="#737373" stroke-linecap="round" stroke-linejoin="round"/><path d="M400.301 295.923s13.617 48.928 13.617 74.281c0 25.353 16.446 21.359 20.676 8.902" stroke="#737373" stroke-linecap="round" stroke-linejoin="round"/><path d="M366.445 296.962s0 15.249-12.07 39.551c-12.069 24.301-12.585 48.602-4.534 66.706 8.051 18.104 29.692 25.266 52.88 17.165 23.188-8.1 26.162-44.321 23.651-66.243-2.512-21.923-25.118-47.651-30.195-60.522-5.076-12.87-8.553-19.531-8.553-19.531s-13.088 17.152-21.152 20.958l-.027 1.916z" stroke="#263238" stroke-linecap="round" stroke-linejoin="round"/><path d="M428.54 431.849l-85.833-3.279c-3.787-.145-6.98 2.645-7.132 6.231l-4.781 112.238c-.153 3.586 2.793 6.61 6.579 6.754l85.834 3.28c3.786.144 6.979-2.645 7.132-6.231l4.781-112.238c.152-3.586-2.793-6.61-6.58-6.755z" fill="#263238" stroke="#263238" stroke-linecap="round" stroke-linejoin="round"/><path d="M472.272 477.25s-43.944-12.946-51.439-15.124c-7.496-2.179-50.673 28.358-52.391 32.715-1.719 4.356 4.6 4.369 4.6 4.369s-2.644 4.357 1.322 6.535a24.189 24.189 0 003.966 2.041s-2.3 4.908 2.301 6.548c4.6 1.64 10.946-2.729 10.946-2.729l10.364-7.086s-12.453 14.435-9.796 17.452c3.662 4.132 6.002-.3 6.002-.3l14.317-16.063 14.384-6.548s11.514 6.548 29.943 7.086c18.429.538 22.474-7.086 22.474-7.086" fill="#fff"/><path d="M472.272 477.25s-43.944-12.946-51.439-15.124c-7.496-2.179-50.673 28.358-52.391 32.715-1.719 4.356 4.6 4.369 4.6 4.369s-2.644 4.357 1.322 6.535a24.189 24.189 0 003.966 2.041s-2.3 4.908 2.301 6.548c4.6 1.64 10.946-2.729 10.946-2.729l10.364-7.086s-12.453 14.435-9.796 17.452c3.662 4.132 6.002-.3 6.002-.3l14.317-16.063 14.384-6.548s11.514 6.548 29.943 7.086c18.429.538 22.474-7.086 22.474-7.086" stroke="#263238" stroke-linecap="round" stroke-linejoin="round"/><path d="M378.422 507.786s16.142-10.491 20.161-14.285c4.019-3.794 17.04-11.719 21.059-11.719m-17.608 22.774s7.932-8.489 10.919-9.753a929.276 929.276 0 007.351-3.168m-47.262 7.575s22.475-15.024 30.169-19.443c4.6-2.659 9.404-4.99 14.37-6.974" stroke="#263238" stroke-linecap="round" stroke-linejoin="round"/></svg>